<mxfile host="app.diagrams.net" modified="2023-10-30T17:25:05.184Z" agent="Mozilla/5.0 (Windows NT 10.0; Win64; x64) AppleWebKit/537.36 (KHTML, like Gecko) Chrome/116.0.0.0 Safari/537.36 OPR/102.0.0.0" etag="caydv2-cAi5UzkwscKJl" version="22.0.8" type="device" pages="3">
  <diagram name="Page-1" id="6FZozcyZUqcYuDXdWh_8">
    <mxGraphModel dx="2001" dy="674" grid="1" gridSize="10" guides="1" tooltips="1" connect="1" arrows="1" fold="1" page="1" pageScale="1" pageWidth="850" pageHeight="1100" math="0" shadow="0">
      <root>
        <mxCell id="0" />
        <mxCell id="1" parent="0" />
        <mxCell id="jX2BZYwRu3wBl6ifN49M-5" style="edgeStyle=orthogonalEdgeStyle;rounded=0;orthogonalLoop=1;jettySize=auto;html=1;exitX=0.5;exitY=1;exitDx=0;exitDy=0;entryX=0.5;entryY=0;entryDx=0;entryDy=0;" parent="1" source="vbahfQEjgKhKxEBAWPp8-1" target="vbahfQEjgKhKxEBAWPp8-2" edge="1">
          <mxGeometry relative="1" as="geometry" />
        </mxCell>
        <mxCell id="vbahfQEjgKhKxEBAWPp8-1" value="Start_StudyHours" style="ellipse;whiteSpace=wrap;html=1;" parent="1" vertex="1">
          <mxGeometry x="325" y="30" width="200" height="60" as="geometry" />
        </mxCell>
        <mxCell id="jX2BZYwRu3wBl6ifN49M-6" style="edgeStyle=orthogonalEdgeStyle;rounded=0;orthogonalLoop=1;jettySize=auto;html=1;exitX=0.5;exitY=1;exitDx=0;exitDy=0;entryX=0.5;entryY=0;entryDx=0;entryDy=0;" parent="1" source="vbahfQEjgKhKxEBAWPp8-2" target="vbahfQEjgKhKxEBAWPp8-5" edge="1">
          <mxGeometry relative="1" as="geometry" />
        </mxCell>
        <mxCell id="vbahfQEjgKhKxEBAWPp8-2" value="INPUT name" style="shape=parallelogram;perimeter=parallelogramPerimeter;whiteSpace=wrap;html=1;fixedSize=1;" parent="1" vertex="1">
          <mxGeometry x="365" y="110" width="120" height="60" as="geometry" />
        </mxCell>
        <mxCell id="jX2BZYwRu3wBl6ifN49M-4" style="edgeStyle=orthogonalEdgeStyle;rounded=0;orthogonalLoop=1;jettySize=auto;html=1;exitX=0.5;exitY=1;exitDx=0;exitDy=0;entryX=0.5;entryY=0;entryDx=0;entryDy=0;" parent="1" source="vbahfQEjgKhKxEBAWPp8-3" target="vbahfQEjgKhKxEBAWPp8-21" edge="1">
          <mxGeometry relative="1" as="geometry" />
        </mxCell>
        <mxCell id="vbahfQEjgKhKxEBAWPp8-3" value="newMonth = INPUT &quot;Do you want to enter data for a new month?&quot;" style="shape=parallelogram;perimeter=parallelogramPerimeter;whiteSpace=wrap;html=1;fixedSize=1;" parent="1" vertex="1">
          <mxGeometry x="290.5" y="600" width="270" height="60" as="geometry" />
        </mxCell>
        <mxCell id="jX2BZYwRu3wBl6ifN49M-7" style="edgeStyle=orthogonalEdgeStyle;rounded=0;orthogonalLoop=1;jettySize=auto;html=1;exitX=0.5;exitY=1;exitDx=0;exitDy=0;entryX=0.5;entryY=0;entryDx=0;entryDy=0;" parent="1" source="vbahfQEjgKhKxEBAWPp8-5" target="vbahfQEjgKhKxEBAWPp8-20" edge="1">
          <mxGeometry relative="1" as="geometry" />
        </mxCell>
        <mxCell id="vbahfQEjgKhKxEBAWPp8-5" value="totalHours = 0" style="rounded=0;whiteSpace=wrap;html=1;" parent="1" vertex="1">
          <mxGeometry x="365" y="190" width="120" height="40" as="geometry" />
        </mxCell>
        <mxCell id="O985KqMexDWeNWQUxTB4-23" style="edgeStyle=orthogonalEdgeStyle;rounded=0;orthogonalLoop=1;jettySize=auto;html=1;exitX=0.5;exitY=0;exitDx=0;exitDy=0;entryX=0.5;entryY=1;entryDx=0;entryDy=0;" edge="1" parent="1" source="vbahfQEjgKhKxEBAWPp8-7" target="O985KqMexDWeNWQUxTB4-13">
          <mxGeometry relative="1" as="geometry" />
        </mxCell>
        <mxCell id="vbahfQEjgKhKxEBAWPp8-7" value="i = 1" style="whiteSpace=wrap;html=1;" parent="1" vertex="1">
          <mxGeometry x="-85" y="1030" width="120" height="40" as="geometry" />
        </mxCell>
        <mxCell id="jX2BZYwRu3wBl6ifN49M-13" style="edgeStyle=orthogonalEdgeStyle;rounded=0;orthogonalLoop=1;jettySize=auto;html=1;exitX=0.5;exitY=0;exitDx=0;exitDy=0;entryX=0.5;entryY=1;entryDx=0;entryDy=0;" parent="1" source="vbahfQEjgKhKxEBAWPp8-9" target="vbahfQEjgKhKxEBAWPp8-13" edge="1">
          <mxGeometry relative="1" as="geometry" />
        </mxCell>
        <mxCell id="vbahfQEjgKhKxEBAWPp8-9" value="i += 1" style="rounded=0;whiteSpace=wrap;html=1;" parent="1" vertex="1">
          <mxGeometry x="-85" y="630" width="120" height="40" as="geometry" />
        </mxCell>
        <mxCell id="jX2BZYwRu3wBl6ifN49M-20" style="edgeStyle=orthogonalEdgeStyle;rounded=0;orthogonalLoop=1;jettySize=auto;html=1;exitX=0.5;exitY=0;exitDx=0;exitDy=0;entryX=0.5;entryY=1;entryDx=0;entryDy=0;" parent="1" source="vbahfQEjgKhKxEBAWPp8-13" target="jX2BZYwRu3wBl6ifN49M-19" edge="1">
          <mxGeometry relative="1" as="geometry" />
        </mxCell>
        <mxCell id="O985KqMexDWeNWQUxTB4-27" style="edgeStyle=orthogonalEdgeStyle;rounded=0;orthogonalLoop=1;jettySize=auto;html=1;exitX=1;exitY=0.5;exitDx=0;exitDy=0;entryX=1;entryY=0.5;entryDx=0;entryDy=0;" edge="1" parent="1" source="vbahfQEjgKhKxEBAWPp8-13" target="O985KqMexDWeNWQUxTB4-13">
          <mxGeometry relative="1" as="geometry">
            <Array as="points">
              <mxPoint x="240" y="560" />
              <mxPoint x="240" y="960" />
            </Array>
          </mxGeometry>
        </mxCell>
        <mxCell id="vbahfQEjgKhKxEBAWPp8-13" value="IF i &amp;lt;= 4" style="rhombus;whiteSpace=wrap;html=1;" parent="1" vertex="1">
          <mxGeometry x="-65" y="520" width="80" height="80" as="geometry" />
        </mxCell>
        <mxCell id="jX2BZYwRu3wBl6ifN49M-12" style="edgeStyle=orthogonalEdgeStyle;rounded=0;orthogonalLoop=1;jettySize=auto;html=1;exitX=0.5;exitY=0;exitDx=0;exitDy=0;entryX=0.5;entryY=1;entryDx=0;entryDy=0;" parent="1" source="vbahfQEjgKhKxEBAWPp8-16" target="vbahfQEjgKhKxEBAWPp8-9" edge="1">
          <mxGeometry relative="1" as="geometry" />
        </mxCell>
        <mxCell id="vbahfQEjgKhKxEBAWPp8-16" value="totalHours += hours_i" style="rounded=0;whiteSpace=wrap;html=1;" parent="1" vertex="1">
          <mxGeometry x="-145" y="700" width="240" height="40" as="geometry" />
        </mxCell>
        <mxCell id="jX2BZYwRu3wBl6ifN49M-8" style="edgeStyle=orthogonalEdgeStyle;rounded=0;orthogonalLoop=1;jettySize=auto;html=1;exitX=0.5;exitY=1;exitDx=0;exitDy=0;entryX=0.5;entryY=0;entryDx=0;entryDy=0;" parent="1" source="vbahfQEjgKhKxEBAWPp8-20" target="vbahfQEjgKhKxEBAWPp8-3" edge="1">
          <mxGeometry relative="1" as="geometry" />
        </mxCell>
        <mxCell id="vbahfQEjgKhKxEBAWPp8-20" value="monthNum = 1" style="rounded=0;whiteSpace=wrap;html=1;" parent="1" vertex="1">
          <mxGeometry x="323" y="260" width="205" height="40" as="geometry" />
        </mxCell>
        <mxCell id="jX2BZYwRu3wBl6ifN49M-27" style="edgeStyle=orthogonalEdgeStyle;rounded=0;orthogonalLoop=1;jettySize=auto;html=1;exitX=0.5;exitY=1;exitDx=0;exitDy=0;entryX=0.5;entryY=0;entryDx=0;entryDy=0;" parent="1" source="vbahfQEjgKhKxEBAWPp8-21" target="jX2BZYwRu3wBl6ifN49M-25" edge="1">
          <mxGeometry relative="1" as="geometry" />
        </mxCell>
        <mxCell id="vbahfQEjgKhKxEBAWPp8-21" value="IF newMonth == &quot;yes&quot;" style="rhombus;whiteSpace=wrap;html=1;" parent="1" vertex="1">
          <mxGeometry x="385.5" y="1172" width="80" height="80" as="geometry" />
        </mxCell>
        <mxCell id="jX2BZYwRu3wBl6ifN49M-2" value="" style="edgeStyle=orthogonalEdgeStyle;rounded=0;orthogonalLoop=1;jettySize=auto;html=1;exitX=0;exitY=0.5;exitDx=0;exitDy=0;entryX=0.5;entryY=1;entryDx=0;entryDy=0;" parent="1" source="vbahfQEjgKhKxEBAWPp8-21" target="jX2BZYwRu3wBl6ifN49M-1" edge="1">
          <mxGeometry relative="1" as="geometry">
            <mxPoint x="385" y="1090" as="sourcePoint" />
            <mxPoint x="-25" y="1070" as="targetPoint" />
            <Array as="points">
              <mxPoint x="386" y="1210" />
              <mxPoint x="-25" y="1210" />
            </Array>
          </mxGeometry>
        </mxCell>
        <mxCell id="jX2BZYwRu3wBl6ifN49M-17" style="edgeStyle=orthogonalEdgeStyle;rounded=0;orthogonalLoop=1;jettySize=auto;html=1;exitX=0.5;exitY=0;exitDx=0;exitDy=0;entryX=0.5;entryY=1;entryDx=0;entryDy=0;" parent="1" source="jX2BZYwRu3wBl6ifN49M-1" target="vbahfQEjgKhKxEBAWPp8-7" edge="1">
          <mxGeometry relative="1" as="geometry" />
        </mxCell>
        <mxCell id="jX2BZYwRu3wBl6ifN49M-1" value="PRINT &quot;Entering data for month&quot; monthNum" style="shape=parallelogram;perimeter=parallelogramPerimeter;whiteSpace=wrap;html=1;fixedSize=1;" parent="1" vertex="1">
          <mxGeometry x="-140" y="1100" width="230" height="60" as="geometry" />
        </mxCell>
        <mxCell id="jX2BZYwRu3wBl6ifN49M-21" style="edgeStyle=orthogonalEdgeStyle;rounded=0;orthogonalLoop=1;jettySize=auto;html=1;exitX=0.5;exitY=0;exitDx=0;exitDy=0;" parent="1" source="jX2BZYwRu3wBl6ifN49M-19" edge="1">
          <mxGeometry relative="1" as="geometry">
            <mxPoint x="430" y="410" as="targetPoint" />
            <Array as="points">
              <mxPoint x="-25" y="410" />
            </Array>
          </mxGeometry>
        </mxCell>
        <mxCell id="jX2BZYwRu3wBl6ifN49M-19" value="monthNum += 1" style="whiteSpace=wrap;html=1;" parent="1" vertex="1">
          <mxGeometry x="-95" y="460" width="140" height="40" as="geometry" />
        </mxCell>
        <mxCell id="jX2BZYwRu3wBl6ifN49M-22" value="True" style="text;html=1;align=center;verticalAlign=middle;resizable=0;points=[];autosize=1;strokeColor=none;fillColor=none;" parent="1" vertex="1">
          <mxGeometry x="315" y="1170" width="50" height="30" as="geometry" />
        </mxCell>
        <mxCell id="jX2BZYwRu3wBl6ifN49M-23" value="True" style="text;html=1;align=center;verticalAlign=middle;resizable=0;points=[];autosize=1;strokeColor=none;fillColor=none;" parent="1" vertex="1">
          <mxGeometry x="15" y="528" width="50" height="30" as="geometry" />
        </mxCell>
        <mxCell id="jX2BZYwRu3wBl6ifN49M-24" value="False" style="text;html=1;align=center;verticalAlign=middle;resizable=0;points=[];autosize=1;strokeColor=none;fillColor=none;" parent="1" vertex="1">
          <mxGeometry x="-95" y="498" width="50" height="30" as="geometry" />
        </mxCell>
        <mxCell id="jX2BZYwRu3wBl6ifN49M-28" style="edgeStyle=orthogonalEdgeStyle;rounded=0;orthogonalLoop=1;jettySize=auto;html=1;exitX=0.5;exitY=1;exitDx=0;exitDy=0;entryX=0.5;entryY=0;entryDx=0;entryDy=0;" parent="1" source="jX2BZYwRu3wBl6ifN49M-25" target="jX2BZYwRu3wBl6ifN49M-26" edge="1">
          <mxGeometry relative="1" as="geometry" />
        </mxCell>
        <mxCell id="jX2BZYwRu3wBl6ifN49M-25" value="PRINT &quot;Calculating total and average...&quot;" style="shape=parallelogram;perimeter=parallelogramPerimeter;whiteSpace=wrap;html=1;fixedSize=1;" parent="1" vertex="1">
          <mxGeometry x="290" y="1290" width="270" height="60" as="geometry" />
        </mxCell>
        <mxCell id="jX2BZYwRu3wBl6ifN49M-30" style="edgeStyle=orthogonalEdgeStyle;rounded=0;orthogonalLoop=1;jettySize=auto;html=1;exitX=0.5;exitY=1;exitDx=0;exitDy=0;entryX=0.5;entryY=0;entryDx=0;entryDy=0;" parent="1" source="jX2BZYwRu3wBl6ifN49M-26" target="jX2BZYwRu3wBl6ifN49M-29" edge="1">
          <mxGeometry relative="1" as="geometry" />
        </mxCell>
        <mxCell id="jX2BZYwRu3wBl6ifN49M-26" value="avgHours = totalHours / (monthNum * 4)" style="rounded=0;whiteSpace=wrap;html=1;" parent="1" vertex="1">
          <mxGeometry x="365" y="1390" width="120" height="60" as="geometry" />
        </mxCell>
        <mxCell id="jX2BZYwRu3wBl6ifN49M-33" style="edgeStyle=orthogonalEdgeStyle;rounded=0;orthogonalLoop=1;jettySize=auto;html=1;exitX=0.5;exitY=1;exitDx=0;exitDy=0;entryX=0.5;entryY=0;entryDx=0;entryDy=0;" parent="1" source="jX2BZYwRu3wBl6ifN49M-29" target="jX2BZYwRu3wBl6ifN49M-32" edge="1">
          <mxGeometry relative="1" as="geometry" />
        </mxCell>
        <mxCell id="jX2BZYwRu3wBl6ifN49M-29" value="PRINT name &quot;, the total hours you spend studying during these months is&quot; totalHours&amp;nbsp;" style="shape=parallelogram;perimeter=parallelogramPerimeter;whiteSpace=wrap;html=1;fixedSize=1;" parent="1" vertex="1">
          <mxGeometry x="320" y="1480" width="210" height="60" as="geometry" />
        </mxCell>
        <mxCell id="jX2BZYwRu3wBl6ifN49M-31" value="False" style="text;html=1;align=center;verticalAlign=middle;resizable=0;points=[];autosize=1;strokeColor=none;fillColor=none;" parent="1" vertex="1">
          <mxGeometry x="425" y="1248" width="50" height="30" as="geometry" />
        </mxCell>
        <mxCell id="jX2BZYwRu3wBl6ifN49M-35" style="edgeStyle=orthogonalEdgeStyle;rounded=0;orthogonalLoop=1;jettySize=auto;html=1;exitX=0.5;exitY=1;exitDx=0;exitDy=0;entryX=0.5;entryY=0;entryDx=0;entryDy=0;" parent="1" source="jX2BZYwRu3wBl6ifN49M-32" target="jX2BZYwRu3wBl6ifN49M-34" edge="1">
          <mxGeometry relative="1" as="geometry" />
        </mxCell>
        <mxCell id="jX2BZYwRu3wBl6ifN49M-32" value="PRINT &quot;The overall average per week is&quot; avgHours" style="shape=parallelogram;perimeter=parallelogramPerimeter;whiteSpace=wrap;html=1;fixedSize=1;" parent="1" vertex="1">
          <mxGeometry x="310" y="1570" width="230" height="60" as="geometry" />
        </mxCell>
        <mxCell id="jX2BZYwRu3wBl6ifN49M-34" value="End_StudyHours" style="ellipse;whiteSpace=wrap;html=1;" parent="1" vertex="1">
          <mxGeometry x="325" y="1670" width="200" height="60" as="geometry" />
        </mxCell>
        <mxCell id="O985KqMexDWeNWQUxTB4-12" style="edgeStyle=orthogonalEdgeStyle;rounded=0;orthogonalLoop=1;jettySize=auto;html=1;exitX=0.5;exitY=0;exitDx=0;exitDy=0;entryX=0.5;entryY=1;entryDx=0;entryDy=0;" edge="1" parent="1" source="O985KqMexDWeNWQUxTB4-13" target="O985KqMexDWeNWQUxTB4-19">
          <mxGeometry relative="1" as="geometry" />
        </mxCell>
        <mxCell id="O985KqMexDWeNWQUxTB4-13" value="hours_i = INPUT &quot;How many hours did you spend studying in week&quot; i &quot;?&quot;" style="shape=parallelogram;perimeter=parallelogramPerimeter;whiteSpace=wrap;html=1;fixedSize=1;" vertex="1" parent="1">
          <mxGeometry x="-180" y="940" width="310" height="40" as="geometry" />
        </mxCell>
        <mxCell id="O985KqMexDWeNWQUxTB4-18" style="edgeStyle=orthogonalEdgeStyle;rounded=0;orthogonalLoop=1;jettySize=auto;html=1;exitX=0;exitY=0.5;exitDx=0;exitDy=0;entryX=0;entryY=0.5;entryDx=0;entryDy=0;" edge="1" parent="1" source="O985KqMexDWeNWQUxTB4-22" target="O985KqMexDWeNWQUxTB4-13">
          <mxGeometry relative="1" as="geometry">
            <mxPoint x="-260" y="910" as="targetPoint" />
            <Array as="points">
              <mxPoint x="-280" y="960" />
            </Array>
          </mxGeometry>
        </mxCell>
        <mxCell id="O985KqMexDWeNWQUxTB4-24" style="edgeStyle=orthogonalEdgeStyle;rounded=0;orthogonalLoop=1;jettySize=auto;html=1;exitX=0.5;exitY=0;exitDx=0;exitDy=0;entryX=0.5;entryY=1;entryDx=0;entryDy=0;" edge="1" parent="1" source="O985KqMexDWeNWQUxTB4-19" target="vbahfQEjgKhKxEBAWPp8-16">
          <mxGeometry relative="1" as="geometry" />
        </mxCell>
        <mxCell id="O985KqMexDWeNWQUxTB4-19" value="IF 0 &amp;lt;= hours_i &amp;lt;= 168" style="rhombus;whiteSpace=wrap;html=1;" vertex="1" parent="1">
          <mxGeometry x="-100" y="810" width="150" height="80" as="geometry" />
        </mxCell>
        <mxCell id="O985KqMexDWeNWQUxTB4-20" value="False" style="text;html=1;align=center;verticalAlign=middle;resizable=0;points=[];autosize=1;strokeColor=none;fillColor=none;" vertex="1" parent="1">
          <mxGeometry x="-150" y="820" width="50" height="30" as="geometry" />
        </mxCell>
        <mxCell id="O985KqMexDWeNWQUxTB4-21" value="" style="edgeStyle=orthogonalEdgeStyle;rounded=0;orthogonalLoop=1;jettySize=auto;html=1;exitX=0;exitY=0.5;exitDx=0;exitDy=0;entryX=0;entryY=0.5;entryDx=0;entryDy=0;" edge="1" parent="1" source="O985KqMexDWeNWQUxTB4-19" target="O985KqMexDWeNWQUxTB4-22">
          <mxGeometry relative="1" as="geometry">
            <mxPoint x="-170" y="960" as="targetPoint" />
            <mxPoint x="-100" y="850" as="sourcePoint" />
            <Array as="points">
              <mxPoint x="-280" y="850" />
            </Array>
          </mxGeometry>
        </mxCell>
        <mxCell id="O985KqMexDWeNWQUxTB4-22" value="PRINT &quot;Please enter hours between 0 and 168&quot;" style="rounded=0;whiteSpace=wrap;html=1;" vertex="1" parent="1">
          <mxGeometry x="-410" y="880" width="260" height="40" as="geometry" />
        </mxCell>
        <mxCell id="O985KqMexDWeNWQUxTB4-25" value="Text" style="text;html=1;align=center;verticalAlign=middle;resizable=0;points=[];autosize=1;strokeColor=none;fillColor=none;" vertex="1" parent="1">
          <mxGeometry x="-25" y="778" width="50" height="30" as="geometry" />
        </mxCell>
      </root>
    </mxGraphModel>
  </diagram>
  <diagram id="M61s5AGEHdA2Pbsuj6W5" name="Page-2">
    <mxGraphModel dx="2541" dy="478" grid="1" gridSize="10" guides="1" tooltips="1" connect="1" arrows="1" fold="1" page="1" pageScale="1" pageWidth="850" pageHeight="1100" math="0" shadow="0">
      <root>
        <mxCell id="0" />
        <mxCell id="1" parent="0" />
        <mxCell id="iDIsNodAugzC5223pwOJ-1" style="edgeStyle=orthogonalEdgeStyle;rounded=0;orthogonalLoop=1;jettySize=auto;html=1;exitX=0.5;exitY=1;exitDx=0;exitDy=0;entryX=0.5;entryY=0;entryDx=0;entryDy=0;" parent="1" source="iDIsNodAugzC5223pwOJ-2" target="iDIsNodAugzC5223pwOJ-4" edge="1">
          <mxGeometry relative="1" as="geometry" />
        </mxCell>
        <mxCell id="iDIsNodAugzC5223pwOJ-2" value="Start_StudyHours" style="ellipse;whiteSpace=wrap;html=1;" parent="1" vertex="1">
          <mxGeometry x="325" y="30" width="200" height="60" as="geometry" />
        </mxCell>
        <mxCell id="iDIsNodAugzC5223pwOJ-3" style="edgeStyle=orthogonalEdgeStyle;rounded=0;orthogonalLoop=1;jettySize=auto;html=1;exitX=0.5;exitY=1;exitDx=0;exitDy=0;entryX=0.5;entryY=0;entryDx=0;entryDy=0;" parent="1" source="iDIsNodAugzC5223pwOJ-4" target="iDIsNodAugzC5223pwOJ-8" edge="1">
          <mxGeometry relative="1" as="geometry" />
        </mxCell>
        <mxCell id="iDIsNodAugzC5223pwOJ-4" value="INPUT name" style="shape=parallelogram;perimeter=parallelogramPerimeter;whiteSpace=wrap;html=1;fixedSize=1;" parent="1" vertex="1">
          <mxGeometry x="365" y="110" width="120" height="60" as="geometry" />
        </mxCell>
        <mxCell id="iDIsNodAugzC5223pwOJ-5" style="edgeStyle=orthogonalEdgeStyle;rounded=0;orthogonalLoop=1;jettySize=auto;html=1;exitX=0.5;exitY=1;exitDx=0;exitDy=0;entryX=0.5;entryY=0;entryDx=0;entryDy=0;" parent="1" source="iDIsNodAugzC5223pwOJ-6" target="iDIsNodAugzC5223pwOJ-23" edge="1">
          <mxGeometry relative="1" as="geometry">
            <mxPoint x="425.49999999999955" y="780" as="sourcePoint" />
          </mxGeometry>
        </mxCell>
        <mxCell id="iDIsNodAugzC5223pwOJ-6" value="newMonth = INPUT &quot;Do you want to enter data for a new month?&quot;" style="shape=parallelogram;perimeter=parallelogramPerimeter;whiteSpace=wrap;html=1;fixedSize=1;" parent="1" vertex="1">
          <mxGeometry x="290.5" y="720" width="270" height="60" as="geometry" />
        </mxCell>
        <mxCell id="iDIsNodAugzC5223pwOJ-7" style="edgeStyle=orthogonalEdgeStyle;rounded=0;orthogonalLoop=1;jettySize=auto;html=1;exitX=0.5;exitY=1;exitDx=0;exitDy=0;entryX=0.5;entryY=0;entryDx=0;entryDy=0;" parent="1" source="iDIsNodAugzC5223pwOJ-8" target="iDIsNodAugzC5223pwOJ-21" edge="1">
          <mxGeometry relative="1" as="geometry" />
        </mxCell>
        <mxCell id="iDIsNodAugzC5223pwOJ-8" value="totalHours = 0" style="rounded=0;whiteSpace=wrap;html=1;" parent="1" vertex="1">
          <mxGeometry x="365" y="190" width="120" height="40" as="geometry" />
        </mxCell>
        <mxCell id="iDIsNodAugzC5223pwOJ-13" style="edgeStyle=orthogonalEdgeStyle;rounded=0;orthogonalLoop=1;jettySize=auto;html=1;exitX=0.5;exitY=0;exitDx=0;exitDy=0;entryX=0.5;entryY=1;entryDx=0;entryDy=0;" parent="1" source="iDIsNodAugzC5223pwOJ-14" target="iDIsNodAugzC5223pwOJ-17" edge="1">
          <mxGeometry relative="1" as="geometry" />
        </mxCell>
        <mxCell id="0kHLCP4avSaXTJ4f7KQ3-24" style="edgeStyle=orthogonalEdgeStyle;rounded=0;orthogonalLoop=1;jettySize=auto;html=1;exitX=1;exitY=0.5;exitDx=0;exitDy=0;entryX=1;entryY=0.5;entryDx=0;entryDy=0;" edge="1" parent="1" source="iDIsNodAugzC5223pwOJ-17" target="0kHLCP4avSaXTJ4f7KQ3-13">
          <mxGeometry relative="1" as="geometry">
            <Array as="points">
              <mxPoint x="210" y="560" />
              <mxPoint x="210" y="1410" />
            </Array>
          </mxGeometry>
        </mxCell>
        <mxCell id="iDIsNodAugzC5223pwOJ-14" value="i += 1" style="rounded=0;whiteSpace=wrap;html=1;" parent="1" vertex="1">
          <mxGeometry x="-85" y="620" width="120" height="40" as="geometry" />
        </mxCell>
        <mxCell id="iDIsNodAugzC5223pwOJ-16" style="edgeStyle=orthogonalEdgeStyle;rounded=0;orthogonalLoop=1;jettySize=auto;html=1;exitX=0.5;exitY=0;exitDx=0;exitDy=0;entryX=0.5;entryY=1;entryDx=0;entryDy=0;" parent="1" source="iDIsNodAugzC5223pwOJ-17" target="iDIsNodAugzC5223pwOJ-28" edge="1">
          <mxGeometry relative="1" as="geometry" />
        </mxCell>
        <mxCell id="iDIsNodAugzC5223pwOJ-17" value="IF i &amp;lt;= 4" style="rhombus;whiteSpace=wrap;html=1;" parent="1" vertex="1">
          <mxGeometry x="-65" y="520" width="80" height="80" as="geometry" />
        </mxCell>
        <mxCell id="iDIsNodAugzC5223pwOJ-54" style="edgeStyle=orthogonalEdgeStyle;rounded=0;orthogonalLoop=1;jettySize=auto;html=1;exitX=0.5;exitY=0;exitDx=0;exitDy=0;entryX=0.5;entryY=1;entryDx=0;entryDy=0;" parent="1" source="0kHLCP4avSaXTJ4f7KQ3-19" target="iDIsNodAugzC5223pwOJ-45" edge="1">
          <mxGeometry relative="1" as="geometry">
            <mxPoint x="-25" y="1250" as="sourcePoint" />
          </mxGeometry>
        </mxCell>
        <mxCell id="iDIsNodAugzC5223pwOJ-20" style="edgeStyle=orthogonalEdgeStyle;rounded=0;orthogonalLoop=1;jettySize=auto;html=1;exitX=0.5;exitY=1;exitDx=0;exitDy=0;entryX=0.5;entryY=0;entryDx=0;entryDy=0;" parent="1" source="iDIsNodAugzC5223pwOJ-21" target="iDIsNodAugzC5223pwOJ-6" edge="1">
          <mxGeometry relative="1" as="geometry" />
        </mxCell>
        <mxCell id="iDIsNodAugzC5223pwOJ-21" value="monthNum = 1" style="rounded=0;whiteSpace=wrap;html=1;" parent="1" vertex="1">
          <mxGeometry x="323" y="260" width="205" height="40" as="geometry" />
        </mxCell>
        <mxCell id="iDIsNodAugzC5223pwOJ-22" style="edgeStyle=orthogonalEdgeStyle;rounded=0;orthogonalLoop=1;jettySize=auto;html=1;exitX=0.5;exitY=1;exitDx=0;exitDy=0;entryX=0.5;entryY=0;entryDx=0;entryDy=0;" parent="1" source="iDIsNodAugzC5223pwOJ-23" target="iDIsNodAugzC5223pwOJ-33" edge="1">
          <mxGeometry relative="1" as="geometry" />
        </mxCell>
        <mxCell id="iDIsNodAugzC5223pwOJ-43" style="edgeStyle=orthogonalEdgeStyle;rounded=0;orthogonalLoop=1;jettySize=auto;html=1;exitX=0;exitY=0.5;exitDx=0;exitDy=0;entryX=0.5;entryY=1;entryDx=0;entryDy=0;" parent="1" source="iDIsNodAugzC5223pwOJ-23" target="iDIsNodAugzC5223pwOJ-42" edge="1">
          <mxGeometry relative="1" as="geometry" />
        </mxCell>
        <mxCell id="iDIsNodAugzC5223pwOJ-23" value="IF newMonth == &quot;yes&quot;" style="rhombus;whiteSpace=wrap;html=1;" parent="1" vertex="1">
          <mxGeometry x="385.5" y="1672" width="80" height="80" as="geometry" />
        </mxCell>
        <mxCell id="iDIsNodAugzC5223pwOJ-27" style="edgeStyle=orthogonalEdgeStyle;rounded=0;orthogonalLoop=1;jettySize=auto;html=1;exitX=0.5;exitY=0;exitDx=0;exitDy=0;" parent="1" source="iDIsNodAugzC5223pwOJ-28" edge="1">
          <mxGeometry relative="1" as="geometry">
            <mxPoint x="430" y="410" as="targetPoint" />
            <Array as="points">
              <mxPoint x="-25" y="410" />
            </Array>
          </mxGeometry>
        </mxCell>
        <mxCell id="iDIsNodAugzC5223pwOJ-28" value="monthNum += 1" style="whiteSpace=wrap;html=1;" parent="1" vertex="1">
          <mxGeometry x="-95" y="460" width="140" height="40" as="geometry" />
        </mxCell>
        <mxCell id="iDIsNodAugzC5223pwOJ-29" value="True" style="text;html=1;align=center;verticalAlign=middle;resizable=0;points=[];autosize=1;strokeColor=none;fillColor=none;" parent="1" vertex="1">
          <mxGeometry x="315" y="1670" width="50" height="30" as="geometry" />
        </mxCell>
        <mxCell id="iDIsNodAugzC5223pwOJ-30" value="True" style="text;html=1;align=center;verticalAlign=middle;resizable=0;points=[];autosize=1;strokeColor=none;fillColor=none;" parent="1" vertex="1">
          <mxGeometry x="5" y="528" width="50" height="30" as="geometry" />
        </mxCell>
        <mxCell id="iDIsNodAugzC5223pwOJ-31" value="False" style="text;html=1;align=center;verticalAlign=middle;resizable=0;points=[];autosize=1;strokeColor=none;fillColor=none;" parent="1" vertex="1">
          <mxGeometry x="-95" y="498" width="50" height="30" as="geometry" />
        </mxCell>
        <mxCell id="iDIsNodAugzC5223pwOJ-32" style="edgeStyle=orthogonalEdgeStyle;rounded=0;orthogonalLoop=1;jettySize=auto;html=1;exitX=0.5;exitY=1;exitDx=0;exitDy=0;entryX=0.5;entryY=0;entryDx=0;entryDy=0;" parent="1" source="iDIsNodAugzC5223pwOJ-33" target="iDIsNodAugzC5223pwOJ-35" edge="1">
          <mxGeometry relative="1" as="geometry" />
        </mxCell>
        <mxCell id="iDIsNodAugzC5223pwOJ-33" value="PRINT &quot;Calculating total and average...&quot;" style="shape=parallelogram;perimeter=parallelogramPerimeter;whiteSpace=wrap;html=1;fixedSize=1;" parent="1" vertex="1">
          <mxGeometry x="290" y="1790" width="270" height="60" as="geometry" />
        </mxCell>
        <mxCell id="iDIsNodAugzC5223pwOJ-34" style="edgeStyle=orthogonalEdgeStyle;rounded=0;orthogonalLoop=1;jettySize=auto;html=1;exitX=0.5;exitY=1;exitDx=0;exitDy=0;entryX=0.5;entryY=0;entryDx=0;entryDy=0;" parent="1" source="iDIsNodAugzC5223pwOJ-35" target="iDIsNodAugzC5223pwOJ-37" edge="1">
          <mxGeometry relative="1" as="geometry" />
        </mxCell>
        <mxCell id="iDIsNodAugzC5223pwOJ-35" value="avgHours = totalHours / (monthNum * 4)" style="rounded=0;whiteSpace=wrap;html=1;" parent="1" vertex="1">
          <mxGeometry x="365" y="1890" width="120" height="60" as="geometry" />
        </mxCell>
        <mxCell id="iDIsNodAugzC5223pwOJ-36" style="edgeStyle=orthogonalEdgeStyle;rounded=0;orthogonalLoop=1;jettySize=auto;html=1;exitX=0.5;exitY=1;exitDx=0;exitDy=0;entryX=0.5;entryY=0;entryDx=0;entryDy=0;" parent="1" source="iDIsNodAugzC5223pwOJ-37" target="iDIsNodAugzC5223pwOJ-40" edge="1">
          <mxGeometry relative="1" as="geometry" />
        </mxCell>
        <mxCell id="iDIsNodAugzC5223pwOJ-37" value="PRINT name &quot;, the total hours you spend studying during these months is&quot; totalHours&amp;nbsp;" style="shape=parallelogram;perimeter=parallelogramPerimeter;whiteSpace=wrap;html=1;fixedSize=1;" parent="1" vertex="1">
          <mxGeometry x="320" y="1980" width="210" height="60" as="geometry" />
        </mxCell>
        <mxCell id="iDIsNodAugzC5223pwOJ-38" value="False" style="text;html=1;align=center;verticalAlign=middle;resizable=0;points=[];autosize=1;strokeColor=none;fillColor=none;" parent="1" vertex="1">
          <mxGeometry x="425" y="1748" width="50" height="30" as="geometry" />
        </mxCell>
        <mxCell id="iDIsNodAugzC5223pwOJ-39" style="edgeStyle=orthogonalEdgeStyle;rounded=0;orthogonalLoop=1;jettySize=auto;html=1;exitX=0.5;exitY=1;exitDx=0;exitDy=0;entryX=0.5;entryY=0;entryDx=0;entryDy=0;" parent="1" source="iDIsNodAugzC5223pwOJ-40" target="iDIsNodAugzC5223pwOJ-41" edge="1">
          <mxGeometry relative="1" as="geometry" />
        </mxCell>
        <mxCell id="iDIsNodAugzC5223pwOJ-40" value="PRINT &quot;The overall average per week is&quot; avgHours" style="shape=parallelogram;perimeter=parallelogramPerimeter;whiteSpace=wrap;html=1;fixedSize=1;" parent="1" vertex="1">
          <mxGeometry x="310" y="2070" width="230" height="60" as="geometry" />
        </mxCell>
        <mxCell id="iDIsNodAugzC5223pwOJ-41" value="End_StudyHours" style="ellipse;whiteSpace=wrap;html=1;" parent="1" vertex="1">
          <mxGeometry x="325" y="2170" width="200" height="60" as="geometry" />
        </mxCell>
        <mxCell id="iDIsNodAugzC5223pwOJ-44" style="edgeStyle=orthogonalEdgeStyle;rounded=0;orthogonalLoop=1;jettySize=auto;html=1;exitX=0.5;exitY=0;exitDx=0;exitDy=0;entryX=0.5;entryY=1;entryDx=0;entryDy=0;" parent="1" source="iDIsNodAugzC5223pwOJ-42" edge="1">
          <mxGeometry relative="1" as="geometry">
            <mxPoint x="-25" y="1590" as="targetPoint" />
          </mxGeometry>
        </mxCell>
        <mxCell id="iDIsNodAugzC5223pwOJ-42" value="hoursPrev = 0" style="rounded=0;whiteSpace=wrap;html=1;" parent="1" vertex="1">
          <mxGeometry x="-85" y="1620" width="120" height="60" as="geometry" />
        </mxCell>
        <mxCell id="iDIsNodAugzC5223pwOJ-55" style="edgeStyle=orthogonalEdgeStyle;rounded=0;orthogonalLoop=1;jettySize=auto;html=1;exitX=0.5;exitY=0;exitDx=0;exitDy=0;entryX=0.5;entryY=1;entryDx=0;entryDy=0;" parent="1" target="iDIsNodAugzC5223pwOJ-50" edge="1" source="iDIsNodAugzC5223pwOJ-45">
          <mxGeometry relative="1" as="geometry">
            <mxPoint x="-25" y="1120" as="sourcePoint" />
          </mxGeometry>
        </mxCell>
        <mxCell id="DraJ3vN0ORa0FI2UNeBk-2" style="edgeStyle=orthogonalEdgeStyle;rounded=0;orthogonalLoop=1;jettySize=auto;html=1;exitX=0;exitY=0.5;exitDx=0;exitDy=0;entryX=0.5;entryY=1;entryDx=0;entryDy=0;" edge="1" parent="1" source="iDIsNodAugzC5223pwOJ-45" target="iDIsNodAugzC5223pwOJ-47">
          <mxGeometry relative="1" as="geometry" />
        </mxCell>
        <mxCell id="iDIsNodAugzC5223pwOJ-45" value="if hoursPrev == 0" style="rhombus;whiteSpace=wrap;html=1;" parent="1" vertex="1">
          <mxGeometry x="-65" y="1130" width="80" height="80" as="geometry" />
        </mxCell>
        <mxCell id="iDIsNodAugzC5223pwOJ-59" style="edgeStyle=orthogonalEdgeStyle;rounded=0;orthogonalLoop=1;jettySize=auto;html=1;exitX=0.5;exitY=0;exitDx=0;exitDy=0;entryX=0.5;entryY=1;entryDx=0;entryDy=0;" parent="1" source="iDIsNodAugzC5223pwOJ-47" target="iDIsNodAugzC5223pwOJ-51" edge="1">
          <mxGeometry relative="1" as="geometry" />
        </mxCell>
        <mxCell id="iDIsNodAugzC5223pwOJ-60" style="edgeStyle=orthogonalEdgeStyle;rounded=0;orthogonalLoop=1;jettySize=auto;html=1;exitX=0;exitY=0.5;exitDx=0;exitDy=0;entryX=0.5;entryY=1;entryDx=0;entryDy=0;" parent="1" source="iDIsNodAugzC5223pwOJ-47" target="iDIsNodAugzC5223pwOJ-49" edge="1">
          <mxGeometry relative="1" as="geometry" />
        </mxCell>
        <mxCell id="iDIsNodAugzC5223pwOJ-47" value="IF hours_i &amp;lt; hoursPrev" style="rhombus;whiteSpace=wrap;html=1;" parent="1" vertex="1">
          <mxGeometry x="-370" y="1030" width="100" height="100" as="geometry" />
        </mxCell>
        <mxCell id="iDIsNodAugzC5223pwOJ-62" style="edgeStyle=orthogonalEdgeStyle;rounded=0;orthogonalLoop=1;jettySize=auto;html=1;exitX=1;exitY=0.5;exitDx=0;exitDy=0;entryX=0.5;entryY=1;entryDx=0;entryDy=0;" parent="1" source="iDIsNodAugzC5223pwOJ-49" target="iDIsNodAugzC5223pwOJ-52" edge="1">
          <mxGeometry relative="1" as="geometry" />
        </mxCell>
        <mxCell id="iDIsNodAugzC5223pwOJ-64" style="edgeStyle=orthogonalEdgeStyle;rounded=0;orthogonalLoop=1;jettySize=auto;html=1;exitX=0;exitY=0.5;exitDx=0;exitDy=0;entryX=0.5;entryY=1;entryDx=0;entryDy=0;" parent="1" source="iDIsNodAugzC5223pwOJ-49" edge="1" target="iDIsNodAugzC5223pwOJ-53">
          <mxGeometry relative="1" as="geometry">
            <mxPoint x="-700" y="800" as="targetPoint" />
          </mxGeometry>
        </mxCell>
        <mxCell id="iDIsNodAugzC5223pwOJ-49" value="IF hours_i &amp;gt; hoursPrev" style="rhombus;whiteSpace=wrap;html=1;" parent="1" vertex="1">
          <mxGeometry x="-600" y="800" width="100" height="100" as="geometry" />
        </mxCell>
        <mxCell id="iDIsNodAugzC5223pwOJ-50" value="PRINT &quot;Good effort, &quot; name" style="shape=parallelogram;perimeter=parallelogramPerimeter;whiteSpace=wrap;html=1;fixedSize=1;" parent="1" vertex="1">
          <mxGeometry x="-180" y="1060" width="310" height="40" as="geometry" />
        </mxCell>
        <mxCell id="iDIsNodAugzC5223pwOJ-51" value="PRINT &quot;You&#39;ve studied less this week compared to the last, &quot; name &quot;. Try to keep your hours up!&quot;" style="shape=parallelogram;perimeter=parallelogramPerimeter;whiteSpace=wrap;html=1;fixedSize=1;" parent="1" vertex="1">
          <mxGeometry x="-500" y="940" width="360" height="70" as="geometry" />
        </mxCell>
        <mxCell id="iDIsNodAugzC5223pwOJ-70" style="edgeStyle=orthogonalEdgeStyle;rounded=0;orthogonalLoop=1;jettySize=auto;html=1;exitX=0.5;exitY=0;exitDx=0;exitDy=0;" parent="1" source="iDIsNodAugzC5223pwOJ-52" target="iDIsNodAugzC5223pwOJ-56" edge="1">
          <mxGeometry relative="1" as="geometry">
            <Array as="points">
              <mxPoint x="-360" y="690" />
            </Array>
          </mxGeometry>
        </mxCell>
        <mxCell id="iDIsNodAugzC5223pwOJ-52" value="PRINT &quot;Great job, &quot; name &quot;!You &#39;ve increased your study hours.&quot;" style="shape=parallelogram;perimeter=parallelogramPerimeter;whiteSpace=wrap;html=1;fixedSize=1;" parent="1" vertex="1">
          <mxGeometry x="-530" y="740" width="340" height="60" as="geometry" />
        </mxCell>
        <mxCell id="iDIsNodAugzC5223pwOJ-65" style="edgeStyle=orthogonalEdgeStyle;rounded=0;orthogonalLoop=1;jettySize=auto;html=1;exitX=0.5;exitY=0;exitDx=0;exitDy=0;" parent="1" edge="1">
          <mxGeometry relative="1" as="geometry">
            <mxPoint x="-700" y="740" as="sourcePoint" />
            <mxPoint x="-25" y="690" as="targetPoint" />
            <Array as="points">
              <mxPoint x="-700" y="720" />
              <mxPoint x="-25" y="720" />
            </Array>
          </mxGeometry>
        </mxCell>
        <mxCell id="iDIsNodAugzC5223pwOJ-53" value="PRINT &quot;Good consistency, &quot; name &quot;! Keep it up!&quot;" style="shape=parallelogram;perimeter=parallelogramPerimeter;whiteSpace=wrap;html=1;fixedSize=1;" parent="1" vertex="1">
          <mxGeometry x="-820" y="740" width="240" height="60" as="geometry" />
        </mxCell>
        <mxCell id="iDIsNodAugzC5223pwOJ-61" style="edgeStyle=orthogonalEdgeStyle;rounded=0;orthogonalLoop=1;jettySize=auto;html=1;exitX=0.5;exitY=0;exitDx=0;exitDy=0;entryX=0.552;entryY=0.737;entryDx=0;entryDy=0;entryPerimeter=0;" parent="1" source="iDIsNodAugzC5223pwOJ-51" target="iDIsNodAugzC5223pwOJ-56" edge="1">
          <mxGeometry relative="1" as="geometry">
            <mxPoint x="-25" y="690" as="targetPoint" />
          </mxGeometry>
        </mxCell>
        <mxCell id="iDIsNodAugzC5223pwOJ-74" value="" style="edgeStyle=orthogonalEdgeStyle;rounded=0;orthogonalLoop=1;jettySize=auto;html=1;" parent="1" source="iDIsNodAugzC5223pwOJ-56" target="iDIsNodAugzC5223pwOJ-14" edge="1">
          <mxGeometry relative="1" as="geometry" />
        </mxCell>
        <mxCell id="iDIsNodAugzC5223pwOJ-56" value="" style="shape=waypoint;sketch=0;size=6;pointerEvents=1;points=[];fillColor=none;resizable=0;rotatable=0;perimeter=centerPerimeter;snapToPoint=1;" parent="1" vertex="1">
          <mxGeometry x="-35" y="680" width="20" height="20" as="geometry" />
        </mxCell>
        <mxCell id="iDIsNodAugzC5223pwOJ-71" style="edgeStyle=orthogonalEdgeStyle;rounded=0;orthogonalLoop=1;jettySize=auto;html=1;exitX=0.5;exitY=0;exitDx=0;exitDy=0;entryX=0.465;entryY=0.78;entryDx=0;entryDy=0;entryPerimeter=0;" parent="1" source="iDIsNodAugzC5223pwOJ-50" target="iDIsNodAugzC5223pwOJ-56" edge="1">
          <mxGeometry relative="1" as="geometry" />
        </mxCell>
        <mxCell id="DraJ3vN0ORa0FI2UNeBk-1" value="True" style="text;html=1;align=center;verticalAlign=middle;resizable=0;points=[];autosize=1;strokeColor=none;fillColor=none;" vertex="1" parent="1">
          <mxGeometry x="-25" y="1108" width="50" height="30" as="geometry" />
        </mxCell>
        <mxCell id="DraJ3vN0ORa0FI2UNeBk-3" value="False" style="text;html=1;align=center;verticalAlign=middle;resizable=0;points=[];autosize=1;strokeColor=none;fillColor=none;" vertex="1" parent="1">
          <mxGeometry x="-120" y="1130" width="50" height="30" as="geometry" />
        </mxCell>
        <mxCell id="DraJ3vN0ORa0FI2UNeBk-4" value="True" style="text;html=1;align=center;verticalAlign=middle;resizable=0;points=[];autosize=1;strokeColor=none;fillColor=none;" vertex="1" parent="1">
          <mxGeometry x="-310" y="1020" width="50" height="30" as="geometry" />
        </mxCell>
        <mxCell id="DraJ3vN0ORa0FI2UNeBk-5" value="True" style="text;html=1;align=center;verticalAlign=middle;resizable=0;points=[];autosize=1;strokeColor=none;fillColor=none;" vertex="1" parent="1">
          <mxGeometry x="-425" y="810" width="50" height="30" as="geometry" />
        </mxCell>
        <mxCell id="DraJ3vN0ORa0FI2UNeBk-6" value="False" style="text;html=1;align=center;verticalAlign=middle;resizable=0;points=[];autosize=1;strokeColor=none;fillColor=none;" vertex="1" parent="1">
          <mxGeometry x="-410" y="1050" width="50" height="30" as="geometry" />
        </mxCell>
        <mxCell id="DraJ3vN0ORa0FI2UNeBk-7" value="False" style="text;html=1;align=center;verticalAlign=middle;resizable=0;points=[];autosize=1;strokeColor=none;fillColor=none;" vertex="1" parent="1">
          <mxGeometry x="-640" y="820" width="50" height="30" as="geometry" />
        </mxCell>
        <mxCell id="DraJ3vN0ORa0FI2UNeBk-8" value="Here, hoursPrev == hours_i" style="text;html=1;align=center;verticalAlign=middle;resizable=0;points=[];autosize=1;strokeColor=none;fillColor=none;" vertex="1" parent="1">
          <mxGeometry x="-1035" y="698" width="170" height="30" as="geometry" />
        </mxCell>
        <mxCell id="0kHLCP4avSaXTJ4f7KQ3-12" style="edgeStyle=orthogonalEdgeStyle;rounded=0;orthogonalLoop=1;jettySize=auto;html=1;exitX=0.5;exitY=0;exitDx=0;exitDy=0;entryX=0.5;entryY=1;entryDx=0;entryDy=0;" edge="1" parent="1" source="0kHLCP4avSaXTJ4f7KQ3-13" target="0kHLCP4avSaXTJ4f7KQ3-19">
          <mxGeometry relative="1" as="geometry" />
        </mxCell>
        <mxCell id="0kHLCP4avSaXTJ4f7KQ3-13" value="hours_i = INPUT &quot;How many hours did you spend studying in week&quot; i &quot;?&quot;" style="shape=parallelogram;perimeter=parallelogramPerimeter;whiteSpace=wrap;html=1;fixedSize=1;" vertex="1" parent="1">
          <mxGeometry x="-180" y="1390" width="310" height="40" as="geometry" />
        </mxCell>
        <mxCell id="0kHLCP4avSaXTJ4f7KQ3-14" style="edgeStyle=orthogonalEdgeStyle;rounded=0;orthogonalLoop=1;jettySize=auto;html=1;exitX=0.5;exitY=0;exitDx=0;exitDy=0;entryX=0.5;entryY=1;entryDx=0;entryDy=0;" edge="1" parent="1" source="0kHLCP4avSaXTJ4f7KQ3-15" target="0kHLCP4avSaXTJ4f7KQ3-13">
          <mxGeometry relative="1" as="geometry" />
        </mxCell>
        <mxCell id="0kHLCP4avSaXTJ4f7KQ3-15" value="i = 1" style="whiteSpace=wrap;html=1;" vertex="1" parent="1">
          <mxGeometry x="-85" y="1460" width="120" height="40" as="geometry" />
        </mxCell>
        <mxCell id="0kHLCP4avSaXTJ4f7KQ3-16" style="edgeStyle=orthogonalEdgeStyle;rounded=0;orthogonalLoop=1;jettySize=auto;html=1;exitX=0.5;exitY=0;exitDx=0;exitDy=0;entryX=0.5;entryY=1;entryDx=0;entryDy=0;" edge="1" parent="1" source="0kHLCP4avSaXTJ4f7KQ3-17" target="0kHLCP4avSaXTJ4f7KQ3-15">
          <mxGeometry relative="1" as="geometry" />
        </mxCell>
        <mxCell id="0kHLCP4avSaXTJ4f7KQ3-17" value="PRINT &quot;Entering data for month&quot; monthNum" style="shape=parallelogram;perimeter=parallelogramPerimeter;whiteSpace=wrap;html=1;fixedSize=1;" vertex="1" parent="1">
          <mxGeometry x="-140" y="1530" width="230" height="60" as="geometry" />
        </mxCell>
        <mxCell id="0kHLCP4avSaXTJ4f7KQ3-18" style="edgeStyle=orthogonalEdgeStyle;rounded=0;orthogonalLoop=1;jettySize=auto;html=1;exitX=0;exitY=0.5;exitDx=0;exitDy=0;entryX=0;entryY=0.5;entryDx=0;entryDy=0;" edge="1" parent="1" source="0kHLCP4avSaXTJ4f7KQ3-22" target="0kHLCP4avSaXTJ4f7KQ3-13">
          <mxGeometry relative="1" as="geometry">
            <mxPoint x="-260" y="1360" as="targetPoint" />
            <Array as="points">
              <mxPoint x="-280" y="1410" />
            </Array>
          </mxGeometry>
        </mxCell>
        <mxCell id="0kHLCP4avSaXTJ4f7KQ3-19" value="IF 0 &amp;lt;= hours_i &amp;lt;= 168" style="rhombus;whiteSpace=wrap;html=1;" vertex="1" parent="1">
          <mxGeometry x="-100" y="1260" width="150" height="80" as="geometry" />
        </mxCell>
        <mxCell id="0kHLCP4avSaXTJ4f7KQ3-20" value="False" style="text;html=1;align=center;verticalAlign=middle;resizable=0;points=[];autosize=1;strokeColor=none;fillColor=none;" vertex="1" parent="1">
          <mxGeometry x="-150" y="1270" width="50" height="30" as="geometry" />
        </mxCell>
        <mxCell id="0kHLCP4avSaXTJ4f7KQ3-21" value="" style="edgeStyle=orthogonalEdgeStyle;rounded=0;orthogonalLoop=1;jettySize=auto;html=1;exitX=0;exitY=0.5;exitDx=0;exitDy=0;entryX=0;entryY=0.5;entryDx=0;entryDy=0;" edge="1" parent="1" source="0kHLCP4avSaXTJ4f7KQ3-19" target="0kHLCP4avSaXTJ4f7KQ3-22">
          <mxGeometry relative="1" as="geometry">
            <mxPoint x="-170" y="1410" as="targetPoint" />
            <mxPoint x="-100" y="1300" as="sourcePoint" />
            <Array as="points">
              <mxPoint x="-280" y="1300" />
            </Array>
          </mxGeometry>
        </mxCell>
        <mxCell id="0kHLCP4avSaXTJ4f7KQ3-22" value="PRINT &quot;Please enter hours between 0 and 168&quot;" style="rounded=0;whiteSpace=wrap;html=1;" vertex="1" parent="1">
          <mxGeometry x="-410" y="1330" width="260" height="40" as="geometry" />
        </mxCell>
      </root>
    </mxGraphModel>
  </diagram>
  <diagram name="Page-3" id="rhOS0B9TrO2XwqXIYDoq">
    <mxGraphModel dx="6590" dy="2865" grid="1" gridSize="10" guides="1" tooltips="1" connect="1" arrows="1" fold="1" page="1" pageScale="1" pageWidth="850" pageHeight="1100" math="0" shadow="0">
      <root>
        <mxCell id="hDrwgJlJYcbWvLC_Cz83-0" />
        <mxCell id="hDrwgJlJYcbWvLC_Cz83-1" parent="hDrwgJlJYcbWvLC_Cz83-0" />
        <mxCell id="hDrwgJlJYcbWvLC_Cz83-2" style="edgeStyle=orthogonalEdgeStyle;rounded=0;orthogonalLoop=1;jettySize=auto;html=1;exitX=0.5;exitY=1;exitDx=0;exitDy=0;entryX=0.5;entryY=0;entryDx=0;entryDy=0;" edge="1" parent="hDrwgJlJYcbWvLC_Cz83-1" source="hDrwgJlJYcbWvLC_Cz83-3" target="hDrwgJlJYcbWvLC_Cz83-5">
          <mxGeometry relative="1" as="geometry" />
        </mxCell>
        <mxCell id="hDrwgJlJYcbWvLC_Cz83-3" value="Start_StudyHours" style="ellipse;whiteSpace=wrap;html=1;" vertex="1" parent="hDrwgJlJYcbWvLC_Cz83-1">
          <mxGeometry x="325" y="30" width="200" height="60" as="geometry" />
        </mxCell>
        <mxCell id="hDrwgJlJYcbWvLC_Cz83-4" style="edgeStyle=orthogonalEdgeStyle;rounded=0;orthogonalLoop=1;jettySize=auto;html=1;exitX=0.5;exitY=1;exitDx=0;exitDy=0;entryX=0.5;entryY=0;entryDx=0;entryDy=0;" edge="1" parent="hDrwgJlJYcbWvLC_Cz83-1" source="hDrwgJlJYcbWvLC_Cz83-5" target="hDrwgJlJYcbWvLC_Cz83-9">
          <mxGeometry relative="1" as="geometry" />
        </mxCell>
        <mxCell id="hDrwgJlJYcbWvLC_Cz83-5" value="INPUT name" style="shape=parallelogram;perimeter=parallelogramPerimeter;whiteSpace=wrap;html=1;fixedSize=1;" vertex="1" parent="hDrwgJlJYcbWvLC_Cz83-1">
          <mxGeometry x="365" y="110" width="120" height="60" as="geometry" />
        </mxCell>
        <mxCell id="hDrwgJlJYcbWvLC_Cz83-6" style="edgeStyle=orthogonalEdgeStyle;rounded=0;orthogonalLoop=1;jettySize=auto;html=1;exitX=0.5;exitY=1;exitDx=0;exitDy=0;entryX=0.5;entryY=0;entryDx=0;entryDy=0;" edge="1" parent="hDrwgJlJYcbWvLC_Cz83-1" source="hDrwgJlJYcbWvLC_Cz83-7" target="hDrwgJlJYcbWvLC_Cz83-25">
          <mxGeometry relative="1" as="geometry">
            <mxPoint x="425.49999999999955" y="1300" as="sourcePoint" />
          </mxGeometry>
        </mxCell>
        <mxCell id="hDrwgJlJYcbWvLC_Cz83-7" value="newMonth = INPUT &quot;Do you want to enter data for a new month?&quot;" style="shape=parallelogram;perimeter=parallelogramPerimeter;whiteSpace=wrap;html=1;fixedSize=1;" vertex="1" parent="hDrwgJlJYcbWvLC_Cz83-1">
          <mxGeometry x="290.5" y="1240" width="270" height="60" as="geometry" />
        </mxCell>
        <mxCell id="hDrwgJlJYcbWvLC_Cz83-8" style="edgeStyle=orthogonalEdgeStyle;rounded=0;orthogonalLoop=1;jettySize=auto;html=1;exitX=0.5;exitY=1;exitDx=0;exitDy=0;entryX=0.5;entryY=0;entryDx=0;entryDy=0;" edge="1" parent="hDrwgJlJYcbWvLC_Cz83-1" source="hDrwgJlJYcbWvLC_Cz83-9" target="hDrwgJlJYcbWvLC_Cz83-22">
          <mxGeometry relative="1" as="geometry" />
        </mxCell>
        <mxCell id="hDrwgJlJYcbWvLC_Cz83-9" value="totalHours = 0&lt;br&gt;monthNum = 1" style="rounded=0;whiteSpace=wrap;html=1;" vertex="1" parent="hDrwgJlJYcbWvLC_Cz83-1">
          <mxGeometry x="330" y="200" width="190" height="60" as="geometry" />
        </mxCell>
        <mxCell id="gZkioX_1BZv-o3ycCj8h-29" style="edgeStyle=orthogonalEdgeStyle;rounded=0;orthogonalLoop=1;jettySize=auto;html=1;exitX=0.5;exitY=0;exitDx=0;exitDy=0;entryX=0.5;entryY=1;entryDx=0;entryDy=0;" edge="1" parent="hDrwgJlJYcbWvLC_Cz83-1" source="hDrwgJlJYcbWvLC_Cz83-11" target="gZkioX_1BZv-o3ycCj8h-22">
          <mxGeometry relative="1" as="geometry" />
        </mxCell>
        <mxCell id="hDrwgJlJYcbWvLC_Cz83-11" value="hours_i = INPUT &quot;How many hours did you spend studying in week&quot; i &quot;?&quot;" style="shape=parallelogram;perimeter=parallelogramPerimeter;whiteSpace=wrap;html=1;fixedSize=1;" vertex="1" parent="hDrwgJlJYcbWvLC_Cz83-1">
          <mxGeometry x="-180" y="1980" width="310" height="40" as="geometry" />
        </mxCell>
        <mxCell id="hDrwgJlJYcbWvLC_Cz83-12" style="edgeStyle=orthogonalEdgeStyle;rounded=0;orthogonalLoop=1;jettySize=auto;html=1;exitX=0.5;exitY=0;exitDx=0;exitDy=0;entryX=0.5;entryY=1;entryDx=0;entryDy=0;" edge="1" parent="hDrwgJlJYcbWvLC_Cz83-1" source="hDrwgJlJYcbWvLC_Cz83-13" target="hDrwgJlJYcbWvLC_Cz83-11">
          <mxGeometry relative="1" as="geometry" />
        </mxCell>
        <mxCell id="hDrwgJlJYcbWvLC_Cz83-13" value="i = 1" style="whiteSpace=wrap;html=1;" vertex="1" parent="hDrwgJlJYcbWvLC_Cz83-1">
          <mxGeometry x="-85" y="2050" width="120" height="40" as="geometry" />
        </mxCell>
        <mxCell id="hDrwgJlJYcbWvLC_Cz83-14" style="edgeStyle=orthogonalEdgeStyle;rounded=0;orthogonalLoop=1;jettySize=auto;html=1;exitX=0.5;exitY=0;exitDx=0;exitDy=0;entryX=0.5;entryY=1;entryDx=0;entryDy=0;" edge="1" parent="hDrwgJlJYcbWvLC_Cz83-1" source="hDrwgJlJYcbWvLC_Cz83-15" target="hDrwgJlJYcbWvLC_Cz83-18">
          <mxGeometry relative="1" as="geometry" />
        </mxCell>
        <mxCell id="hDrwgJlJYcbWvLC_Cz83-15" value="i += 1" style="rounded=0;whiteSpace=wrap;html=1;" vertex="1" parent="hDrwgJlJYcbWvLC_Cz83-1">
          <mxGeometry x="-85" y="1140" width="120" height="40" as="geometry" />
        </mxCell>
        <mxCell id="hDrwgJlJYcbWvLC_Cz83-16" style="edgeStyle=orthogonalEdgeStyle;rounded=0;orthogonalLoop=1;jettySize=auto;html=1;exitX=1;exitY=0.5;exitDx=0;exitDy=0;entryX=1;entryY=0.5;entryDx=0;entryDy=0;" edge="1" parent="hDrwgJlJYcbWvLC_Cz83-1" source="hDrwgJlJYcbWvLC_Cz83-18" target="hDrwgJlJYcbWvLC_Cz83-11">
          <mxGeometry relative="1" as="geometry">
            <Array as="points">
              <mxPoint x="210" y="1080" />
              <mxPoint x="210" y="2000" />
            </Array>
          </mxGeometry>
        </mxCell>
        <mxCell id="hDrwgJlJYcbWvLC_Cz83-18" value="IF i &amp;lt;= 4" style="rhombus;whiteSpace=wrap;html=1;" vertex="1" parent="hDrwgJlJYcbWvLC_Cz83-1">
          <mxGeometry x="-65" y="1040" width="80" height="80" as="geometry" />
        </mxCell>
        <mxCell id="hDrwgJlJYcbWvLC_Cz83-19" style="edgeStyle=orthogonalEdgeStyle;rounded=0;orthogonalLoop=1;jettySize=auto;html=1;exitX=0.5;exitY=0;exitDx=0;exitDy=0;entryX=0.5;entryY=1;entryDx=0;entryDy=0;" edge="1" parent="hDrwgJlJYcbWvLC_Cz83-1" source="hDrwgJlJYcbWvLC_Cz83-20" target="hDrwgJlJYcbWvLC_Cz83-47">
          <mxGeometry relative="1" as="geometry" />
        </mxCell>
        <mxCell id="hDrwgJlJYcbWvLC_Cz83-20" value="totalHours += hours_i&lt;br&gt;totalHours_i += hours_i" style="rounded=0;whiteSpace=wrap;html=1;" vertex="1" parent="hDrwgJlJYcbWvLC_Cz83-1">
          <mxGeometry x="-145" y="1770" width="240" height="40" as="geometry" />
        </mxCell>
        <mxCell id="hDrwgJlJYcbWvLC_Cz83-21" style="edgeStyle=orthogonalEdgeStyle;rounded=0;orthogonalLoop=1;jettySize=auto;html=1;exitX=0.5;exitY=1;exitDx=0;exitDy=0;entryX=0.5;entryY=0;entryDx=0;entryDy=0;" edge="1" parent="hDrwgJlJYcbWvLC_Cz83-1" source="xmLXSN6rl-044xEv4b7r-2" target="hDrwgJlJYcbWvLC_Cz83-7">
          <mxGeometry relative="1" as="geometry" />
        </mxCell>
        <mxCell id="hDrwgJlJYcbWvLC_Cz83-22" value="avgMin = 168&lt;br&gt;avgMax = 0" style="rounded=0;whiteSpace=wrap;html=1;" vertex="1" parent="hDrwgJlJYcbWvLC_Cz83-1">
          <mxGeometry x="323" y="280" width="205" height="60" as="geometry" />
        </mxCell>
        <mxCell id="hDrwgJlJYcbWvLC_Cz83-23" style="edgeStyle=orthogonalEdgeStyle;rounded=0;orthogonalLoop=1;jettySize=auto;html=1;exitX=0.5;exitY=1;exitDx=0;exitDy=0;entryX=0.5;entryY=0;entryDx=0;entryDy=0;" edge="1" parent="hDrwgJlJYcbWvLC_Cz83-1" source="hDrwgJlJYcbWvLC_Cz83-25" target="hDrwgJlJYcbWvLC_Cz83-34">
          <mxGeometry relative="1" as="geometry" />
        </mxCell>
        <mxCell id="hDrwgJlJYcbWvLC_Cz83-24" style="edgeStyle=orthogonalEdgeStyle;rounded=0;orthogonalLoop=1;jettySize=auto;html=1;exitX=0.5;exitY=0;exitDx=0;exitDy=0;entryX=0.5;entryY=1;entryDx=0;entryDy=0;" edge="1" parent="hDrwgJlJYcbWvLC_Cz83-1" source="gZkioX_1BZv-o3ycCj8h-3" target="hDrwgJlJYcbWvLC_Cz83-44">
          <mxGeometry relative="1" as="geometry">
            <Array as="points">
              <mxPoint x="-25" y="2330" />
              <mxPoint x="-25" y="2330" />
            </Array>
          </mxGeometry>
        </mxCell>
        <mxCell id="hDrwgJlJYcbWvLC_Cz83-25" value="IF newMonth == &quot;yes&quot;" style="rhombus;whiteSpace=wrap;html=1;" vertex="1" parent="hDrwgJlJYcbWvLC_Cz83-1">
          <mxGeometry x="385.5" y="2372" width="80" height="80" as="geometry" />
        </mxCell>
        <mxCell id="hDrwgJlJYcbWvLC_Cz83-26" style="edgeStyle=orthogonalEdgeStyle;rounded=0;orthogonalLoop=1;jettySize=auto;html=1;exitX=0.5;exitY=0;exitDx=0;exitDy=0;entryX=0.5;entryY=1;entryDx=0;entryDy=0;" edge="1" parent="hDrwgJlJYcbWvLC_Cz83-1" source="hDrwgJlJYcbWvLC_Cz83-27" target="hDrwgJlJYcbWvLC_Cz83-13">
          <mxGeometry relative="1" as="geometry" />
        </mxCell>
        <mxCell id="hDrwgJlJYcbWvLC_Cz83-27" value="PRINT &quot;Entering data for month&quot; monthNum" style="shape=parallelogram;perimeter=parallelogramPerimeter;whiteSpace=wrap;html=1;fixedSize=1;" vertex="1" parent="hDrwgJlJYcbWvLC_Cz83-1">
          <mxGeometry x="-140" y="2120" width="230" height="60" as="geometry" />
        </mxCell>
        <mxCell id="hDrwgJlJYcbWvLC_Cz83-28" style="edgeStyle=orthogonalEdgeStyle;rounded=0;orthogonalLoop=1;jettySize=auto;html=1;exitX=0.5;exitY=0;exitDx=0;exitDy=0;" edge="1" parent="hDrwgJlJYcbWvLC_Cz83-1" source="hDrwgJlJYcbWvLC_Cz83-29">
          <mxGeometry relative="1" as="geometry">
            <mxPoint x="430" y="550" as="targetPoint" />
            <Array as="points">
              <mxPoint x="-25" y="550" />
            </Array>
          </mxGeometry>
        </mxCell>
        <mxCell id="hDrwgJlJYcbWvLC_Cz83-29" value="monthNum += 1" style="whiteSpace=wrap;html=1;" vertex="1" parent="hDrwgJlJYcbWvLC_Cz83-1">
          <mxGeometry x="-95" y="570" width="140" height="40" as="geometry" />
        </mxCell>
        <mxCell id="hDrwgJlJYcbWvLC_Cz83-30" value="True" style="text;html=1;align=center;verticalAlign=middle;resizable=0;points=[];autosize=1;strokeColor=none;fillColor=none;" vertex="1" parent="hDrwgJlJYcbWvLC_Cz83-1">
          <mxGeometry x="315" y="2370" width="50" height="30" as="geometry" />
        </mxCell>
        <mxCell id="hDrwgJlJYcbWvLC_Cz83-31" value="True" style="text;html=1;align=center;verticalAlign=middle;resizable=0;points=[];autosize=1;strokeColor=none;fillColor=none;" vertex="1" parent="hDrwgJlJYcbWvLC_Cz83-1">
          <mxGeometry x="5" y="1048" width="50" height="30" as="geometry" />
        </mxCell>
        <mxCell id="hDrwgJlJYcbWvLC_Cz83-32" value="False" style="text;html=1;align=center;verticalAlign=middle;resizable=0;points=[];autosize=1;strokeColor=none;fillColor=none;" vertex="1" parent="hDrwgJlJYcbWvLC_Cz83-1">
          <mxGeometry x="-95" y="1018" width="50" height="30" as="geometry" />
        </mxCell>
        <mxCell id="hDrwgJlJYcbWvLC_Cz83-33" style="edgeStyle=orthogonalEdgeStyle;rounded=0;orthogonalLoop=1;jettySize=auto;html=1;exitX=0.5;exitY=1;exitDx=0;exitDy=0;entryX=0.5;entryY=0;entryDx=0;entryDy=0;" edge="1" parent="hDrwgJlJYcbWvLC_Cz83-1" source="hDrwgJlJYcbWvLC_Cz83-34" target="hDrwgJlJYcbWvLC_Cz83-36">
          <mxGeometry relative="1" as="geometry" />
        </mxCell>
        <mxCell id="hDrwgJlJYcbWvLC_Cz83-34" value="PRINT &quot;Calculating total and average...&quot;" style="shape=parallelogram;perimeter=parallelogramPerimeter;whiteSpace=wrap;html=1;fixedSize=1;" vertex="1" parent="hDrwgJlJYcbWvLC_Cz83-1">
          <mxGeometry x="290" y="2490" width="270" height="60" as="geometry" />
        </mxCell>
        <mxCell id="hDrwgJlJYcbWvLC_Cz83-35" style="edgeStyle=orthogonalEdgeStyle;rounded=0;orthogonalLoop=1;jettySize=auto;html=1;exitX=0.5;exitY=1;exitDx=0;exitDy=0;entryX=0.5;entryY=0;entryDx=0;entryDy=0;" edge="1" parent="hDrwgJlJYcbWvLC_Cz83-1" source="hDrwgJlJYcbWvLC_Cz83-36" target="hDrwgJlJYcbWvLC_Cz83-38">
          <mxGeometry relative="1" as="geometry" />
        </mxCell>
        <mxCell id="hDrwgJlJYcbWvLC_Cz83-36" value="avgHours = totalHours / (monthNum * 4)" style="rounded=0;whiteSpace=wrap;html=1;" vertex="1" parent="hDrwgJlJYcbWvLC_Cz83-1">
          <mxGeometry x="365" y="2590" width="120" height="60" as="geometry" />
        </mxCell>
        <mxCell id="hDrwgJlJYcbWvLC_Cz83-37" style="edgeStyle=orthogonalEdgeStyle;rounded=0;orthogonalLoop=1;jettySize=auto;html=1;exitX=0.5;exitY=1;exitDx=0;exitDy=0;entryX=0.5;entryY=0;entryDx=0;entryDy=0;" edge="1" parent="hDrwgJlJYcbWvLC_Cz83-1" source="hDrwgJlJYcbWvLC_Cz83-38" target="hDrwgJlJYcbWvLC_Cz83-41">
          <mxGeometry relative="1" as="geometry" />
        </mxCell>
        <mxCell id="hDrwgJlJYcbWvLC_Cz83-38" value="PRINT name &quot;, the total hours you spend studying during these months is&quot; totalHours&amp;nbsp;" style="shape=parallelogram;perimeter=parallelogramPerimeter;whiteSpace=wrap;html=1;fixedSize=1;" vertex="1" parent="hDrwgJlJYcbWvLC_Cz83-1">
          <mxGeometry x="320" y="2680" width="210" height="60" as="geometry" />
        </mxCell>
        <mxCell id="hDrwgJlJYcbWvLC_Cz83-39" value="False" style="text;html=1;align=center;verticalAlign=middle;resizable=0;points=[];autosize=1;strokeColor=none;fillColor=none;" vertex="1" parent="hDrwgJlJYcbWvLC_Cz83-1">
          <mxGeometry x="425" y="2448" width="50" height="30" as="geometry" />
        </mxCell>
        <mxCell id="hDrwgJlJYcbWvLC_Cz83-40" style="edgeStyle=orthogonalEdgeStyle;rounded=0;orthogonalLoop=1;jettySize=auto;html=1;exitX=0.5;exitY=1;exitDx=0;exitDy=0;entryX=0.5;entryY=0;entryDx=0;entryDy=0;" edge="1" parent="hDrwgJlJYcbWvLC_Cz83-1" source="xmLXSN6rl-044xEv4b7r-6" target="hDrwgJlJYcbWvLC_Cz83-42">
          <mxGeometry relative="1" as="geometry" />
        </mxCell>
        <mxCell id="hDrwgJlJYcbWvLC_Cz83-41" value="PRINT &quot;The overall average per week is&quot; avgHours" style="shape=parallelogram;perimeter=parallelogramPerimeter;whiteSpace=wrap;html=1;fixedSize=1;" vertex="1" parent="hDrwgJlJYcbWvLC_Cz83-1">
          <mxGeometry x="310" y="2770" width="230" height="60" as="geometry" />
        </mxCell>
        <mxCell id="hDrwgJlJYcbWvLC_Cz83-42" value="End_StudyHours" style="ellipse;whiteSpace=wrap;html=1;" vertex="1" parent="hDrwgJlJYcbWvLC_Cz83-1">
          <mxGeometry x="325" y="3150" width="200" height="60" as="geometry" />
        </mxCell>
        <mxCell id="hDrwgJlJYcbWvLC_Cz83-43" style="edgeStyle=orthogonalEdgeStyle;rounded=0;orthogonalLoop=1;jettySize=auto;html=1;exitX=0.5;exitY=0;exitDx=0;exitDy=0;entryX=0.5;entryY=1;entryDx=0;entryDy=0;" edge="1" parent="hDrwgJlJYcbWvLC_Cz83-1" source="hDrwgJlJYcbWvLC_Cz83-44" target="hDrwgJlJYcbWvLC_Cz83-27">
          <mxGeometry relative="1" as="geometry" />
        </mxCell>
        <mxCell id="hDrwgJlJYcbWvLC_Cz83-44" value="hoursPrev = 0" style="rounded=0;whiteSpace=wrap;html=1;" vertex="1" parent="hDrwgJlJYcbWvLC_Cz83-1">
          <mxGeometry x="-85" y="2210" width="120" height="60" as="geometry" />
        </mxCell>
        <mxCell id="hDrwgJlJYcbWvLC_Cz83-45" style="edgeStyle=orthogonalEdgeStyle;rounded=0;orthogonalLoop=1;jettySize=auto;html=1;exitX=0.5;exitY=0;exitDx=0;exitDy=0;entryX=0.5;entryY=1;entryDx=0;entryDy=0;" edge="1" parent="hDrwgJlJYcbWvLC_Cz83-1" source="hDrwgJlJYcbWvLC_Cz83-47" target="hDrwgJlJYcbWvLC_Cz83-54">
          <mxGeometry relative="1" as="geometry">
            <mxPoint x="-25" y="1640" as="sourcePoint" />
          </mxGeometry>
        </mxCell>
        <mxCell id="hDrwgJlJYcbWvLC_Cz83-46" style="edgeStyle=orthogonalEdgeStyle;rounded=0;orthogonalLoop=1;jettySize=auto;html=1;exitX=0;exitY=0.5;exitDx=0;exitDy=0;entryX=0.5;entryY=1;entryDx=0;entryDy=0;" edge="1" parent="hDrwgJlJYcbWvLC_Cz83-1" source="hDrwgJlJYcbWvLC_Cz83-47" target="hDrwgJlJYcbWvLC_Cz83-50">
          <mxGeometry relative="1" as="geometry" />
        </mxCell>
        <mxCell id="hDrwgJlJYcbWvLC_Cz83-47" value="if hoursPrev == 0" style="rhombus;whiteSpace=wrap;html=1;" vertex="1" parent="hDrwgJlJYcbWvLC_Cz83-1">
          <mxGeometry x="-65" y="1650" width="80" height="80" as="geometry" />
        </mxCell>
        <mxCell id="hDrwgJlJYcbWvLC_Cz83-48" style="edgeStyle=orthogonalEdgeStyle;rounded=0;orthogonalLoop=1;jettySize=auto;html=1;exitX=0.5;exitY=0;exitDx=0;exitDy=0;entryX=0.5;entryY=1;entryDx=0;entryDy=0;" edge="1" parent="hDrwgJlJYcbWvLC_Cz83-1" source="hDrwgJlJYcbWvLC_Cz83-50" target="hDrwgJlJYcbWvLC_Cz83-55">
          <mxGeometry relative="1" as="geometry" />
        </mxCell>
        <mxCell id="hDrwgJlJYcbWvLC_Cz83-49" style="edgeStyle=orthogonalEdgeStyle;rounded=0;orthogonalLoop=1;jettySize=auto;html=1;exitX=0;exitY=0.5;exitDx=0;exitDy=0;entryX=0.5;entryY=1;entryDx=0;entryDy=0;" edge="1" parent="hDrwgJlJYcbWvLC_Cz83-1" source="hDrwgJlJYcbWvLC_Cz83-50" target="hDrwgJlJYcbWvLC_Cz83-53">
          <mxGeometry relative="1" as="geometry" />
        </mxCell>
        <mxCell id="hDrwgJlJYcbWvLC_Cz83-50" value="IF hours_i &amp;lt; hoursPrev" style="rhombus;whiteSpace=wrap;html=1;" vertex="1" parent="hDrwgJlJYcbWvLC_Cz83-1">
          <mxGeometry x="-370" y="1550" width="100" height="100" as="geometry" />
        </mxCell>
        <mxCell id="hDrwgJlJYcbWvLC_Cz83-51" style="edgeStyle=orthogonalEdgeStyle;rounded=0;orthogonalLoop=1;jettySize=auto;html=1;exitX=1;exitY=0.5;exitDx=0;exitDy=0;entryX=0.5;entryY=1;entryDx=0;entryDy=0;" edge="1" parent="hDrwgJlJYcbWvLC_Cz83-1" source="hDrwgJlJYcbWvLC_Cz83-53" target="hDrwgJlJYcbWvLC_Cz83-57">
          <mxGeometry relative="1" as="geometry" />
        </mxCell>
        <mxCell id="hDrwgJlJYcbWvLC_Cz83-52" style="edgeStyle=orthogonalEdgeStyle;rounded=0;orthogonalLoop=1;jettySize=auto;html=1;exitX=0;exitY=0.5;exitDx=0;exitDy=0;entryX=0.5;entryY=1;entryDx=0;entryDy=0;" edge="1" parent="hDrwgJlJYcbWvLC_Cz83-1" source="hDrwgJlJYcbWvLC_Cz83-53" target="hDrwgJlJYcbWvLC_Cz83-59">
          <mxGeometry relative="1" as="geometry">
            <mxPoint x="-700" y="1320" as="targetPoint" />
          </mxGeometry>
        </mxCell>
        <mxCell id="hDrwgJlJYcbWvLC_Cz83-53" value="IF hours_i &amp;gt; hoursPrev" style="rhombus;whiteSpace=wrap;html=1;" vertex="1" parent="hDrwgJlJYcbWvLC_Cz83-1">
          <mxGeometry x="-600" y="1320" width="100" height="100" as="geometry" />
        </mxCell>
        <mxCell id="hDrwgJlJYcbWvLC_Cz83-54" value="PRINT &quot;Good effort, &quot; name" style="shape=parallelogram;perimeter=parallelogramPerimeter;whiteSpace=wrap;html=1;fixedSize=1;" vertex="1" parent="hDrwgJlJYcbWvLC_Cz83-1">
          <mxGeometry x="-180" y="1580" width="310" height="40" as="geometry" />
        </mxCell>
        <mxCell id="hDrwgJlJYcbWvLC_Cz83-55" value="PRINT &quot;You&#39;ve studied less this week compared to the last, &quot; name &quot;. Try to keep your hours up!&quot;" style="shape=parallelogram;perimeter=parallelogramPerimeter;whiteSpace=wrap;html=1;fixedSize=1;" vertex="1" parent="hDrwgJlJYcbWvLC_Cz83-1">
          <mxGeometry x="-500" y="1460" width="360" height="70" as="geometry" />
        </mxCell>
        <mxCell id="hDrwgJlJYcbWvLC_Cz83-56" style="edgeStyle=orthogonalEdgeStyle;rounded=0;orthogonalLoop=1;jettySize=auto;html=1;exitX=0.5;exitY=0;exitDx=0;exitDy=0;" edge="1" parent="hDrwgJlJYcbWvLC_Cz83-1" source="hDrwgJlJYcbWvLC_Cz83-57" target="hDrwgJlJYcbWvLC_Cz83-62">
          <mxGeometry relative="1" as="geometry">
            <Array as="points">
              <mxPoint x="-360" y="1210" />
            </Array>
          </mxGeometry>
        </mxCell>
        <mxCell id="hDrwgJlJYcbWvLC_Cz83-57" value="PRINT &quot;Great job, &quot; name &quot;!You &#39;ve increased your study hours.&quot;" style="shape=parallelogram;perimeter=parallelogramPerimeter;whiteSpace=wrap;html=1;fixedSize=1;" vertex="1" parent="hDrwgJlJYcbWvLC_Cz83-1">
          <mxGeometry x="-530" y="1260" width="340" height="60" as="geometry" />
        </mxCell>
        <mxCell id="hDrwgJlJYcbWvLC_Cz83-58" style="edgeStyle=orthogonalEdgeStyle;rounded=0;orthogonalLoop=1;jettySize=auto;html=1;exitX=0.5;exitY=0;exitDx=0;exitDy=0;" edge="1" parent="hDrwgJlJYcbWvLC_Cz83-1">
          <mxGeometry relative="1" as="geometry">
            <mxPoint x="-700" y="1260" as="sourcePoint" />
            <mxPoint x="-25" y="1210" as="targetPoint" />
            <Array as="points">
              <mxPoint x="-700" y="1240" />
              <mxPoint x="-25" y="1240" />
            </Array>
          </mxGeometry>
        </mxCell>
        <mxCell id="hDrwgJlJYcbWvLC_Cz83-59" value="PRINT &quot;Good consistency, &quot; name &quot;! Keep it up!&quot;" style="shape=parallelogram;perimeter=parallelogramPerimeter;whiteSpace=wrap;html=1;fixedSize=1;" vertex="1" parent="hDrwgJlJYcbWvLC_Cz83-1">
          <mxGeometry x="-820" y="1260" width="240" height="60" as="geometry" />
        </mxCell>
        <mxCell id="hDrwgJlJYcbWvLC_Cz83-60" style="edgeStyle=orthogonalEdgeStyle;rounded=0;orthogonalLoop=1;jettySize=auto;html=1;exitX=0.5;exitY=0;exitDx=0;exitDy=0;entryX=0.552;entryY=0.737;entryDx=0;entryDy=0;entryPerimeter=0;" edge="1" parent="hDrwgJlJYcbWvLC_Cz83-1" source="hDrwgJlJYcbWvLC_Cz83-55" target="hDrwgJlJYcbWvLC_Cz83-62">
          <mxGeometry relative="1" as="geometry">
            <mxPoint x="-25" y="1210" as="targetPoint" />
          </mxGeometry>
        </mxCell>
        <mxCell id="hDrwgJlJYcbWvLC_Cz83-61" value="" style="edgeStyle=orthogonalEdgeStyle;rounded=0;orthogonalLoop=1;jettySize=auto;html=1;" edge="1" parent="hDrwgJlJYcbWvLC_Cz83-1" source="hDrwgJlJYcbWvLC_Cz83-62" target="hDrwgJlJYcbWvLC_Cz83-15">
          <mxGeometry relative="1" as="geometry" />
        </mxCell>
        <mxCell id="hDrwgJlJYcbWvLC_Cz83-62" value="" style="shape=waypoint;sketch=0;size=6;pointerEvents=1;points=[];fillColor=none;resizable=0;rotatable=0;perimeter=centerPerimeter;snapToPoint=1;" vertex="1" parent="hDrwgJlJYcbWvLC_Cz83-1">
          <mxGeometry x="-35" y="1200" width="20" height="20" as="geometry" />
        </mxCell>
        <mxCell id="hDrwgJlJYcbWvLC_Cz83-63" style="edgeStyle=orthogonalEdgeStyle;rounded=0;orthogonalLoop=1;jettySize=auto;html=1;exitX=0.5;exitY=0;exitDx=0;exitDy=0;entryX=0.465;entryY=0.78;entryDx=0;entryDy=0;entryPerimeter=0;" edge="1" parent="hDrwgJlJYcbWvLC_Cz83-1" source="hDrwgJlJYcbWvLC_Cz83-54" target="hDrwgJlJYcbWvLC_Cz83-62">
          <mxGeometry relative="1" as="geometry" />
        </mxCell>
        <mxCell id="hDrwgJlJYcbWvLC_Cz83-64" value="True" style="text;html=1;align=center;verticalAlign=middle;resizable=0;points=[];autosize=1;strokeColor=none;fillColor=none;" vertex="1" parent="hDrwgJlJYcbWvLC_Cz83-1">
          <mxGeometry x="-25" y="1628" width="50" height="30" as="geometry" />
        </mxCell>
        <mxCell id="hDrwgJlJYcbWvLC_Cz83-65" value="False" style="text;html=1;align=center;verticalAlign=middle;resizable=0;points=[];autosize=1;strokeColor=none;fillColor=none;" vertex="1" parent="hDrwgJlJYcbWvLC_Cz83-1">
          <mxGeometry x="-120" y="1650" width="50" height="30" as="geometry" />
        </mxCell>
        <mxCell id="hDrwgJlJYcbWvLC_Cz83-66" value="True" style="text;html=1;align=center;verticalAlign=middle;resizable=0;points=[];autosize=1;strokeColor=none;fillColor=none;" vertex="1" parent="hDrwgJlJYcbWvLC_Cz83-1">
          <mxGeometry x="-310" y="1540" width="50" height="30" as="geometry" />
        </mxCell>
        <mxCell id="hDrwgJlJYcbWvLC_Cz83-67" value="True" style="text;html=1;align=center;verticalAlign=middle;resizable=0;points=[];autosize=1;strokeColor=none;fillColor=none;" vertex="1" parent="hDrwgJlJYcbWvLC_Cz83-1">
          <mxGeometry x="-425" y="1330" width="50" height="30" as="geometry" />
        </mxCell>
        <mxCell id="hDrwgJlJYcbWvLC_Cz83-68" value="False" style="text;html=1;align=center;verticalAlign=middle;resizable=0;points=[];autosize=1;strokeColor=none;fillColor=none;" vertex="1" parent="hDrwgJlJYcbWvLC_Cz83-1">
          <mxGeometry x="-410" y="1570" width="50" height="30" as="geometry" />
        </mxCell>
        <mxCell id="hDrwgJlJYcbWvLC_Cz83-69" value="False" style="text;html=1;align=center;verticalAlign=middle;resizable=0;points=[];autosize=1;strokeColor=none;fillColor=none;" vertex="1" parent="hDrwgJlJYcbWvLC_Cz83-1">
          <mxGeometry x="-640" y="1340" width="50" height="30" as="geometry" />
        </mxCell>
        <mxCell id="hDrwgJlJYcbWvLC_Cz83-70" value="Here, hoursPrev == hours_i" style="text;html=1;align=center;verticalAlign=middle;resizable=0;points=[];autosize=1;strokeColor=none;fillColor=none;" vertex="1" parent="hDrwgJlJYcbWvLC_Cz83-1">
          <mxGeometry x="-1035" y="1218" width="170" height="30" as="geometry" />
        </mxCell>
        <mxCell id="gZkioX_1BZv-o3ycCj8h-2" value="" style="edgeStyle=orthogonalEdgeStyle;rounded=0;orthogonalLoop=1;jettySize=auto;html=1;exitX=0;exitY=0.5;exitDx=0;exitDy=0;entryX=0.5;entryY=1;entryDx=0;entryDy=0;" edge="1" parent="hDrwgJlJYcbWvLC_Cz83-1" source="hDrwgJlJYcbWvLC_Cz83-25" target="gZkioX_1BZv-o3ycCj8h-3">
          <mxGeometry relative="1" as="geometry">
            <mxPoint x="386" y="2412" as="sourcePoint" />
            <mxPoint x="-25" y="2210" as="targetPoint" />
          </mxGeometry>
        </mxCell>
        <mxCell id="gZkioX_1BZv-o3ycCj8h-3" value="totalHours_i = 0" style="rounded=0;whiteSpace=wrap;html=1;" vertex="1" parent="hDrwgJlJYcbWvLC_Cz83-1">
          <mxGeometry x="-85" y="2320" width="120" height="40" as="geometry" />
        </mxCell>
        <mxCell id="gZkioX_1BZv-o3ycCj8h-4" value="" style="edgeStyle=orthogonalEdgeStyle;rounded=0;orthogonalLoop=1;jettySize=auto;html=1;exitX=0.5;exitY=0;exitDx=0;exitDy=0;entryX=0.5;entryY=1;entryDx=0;entryDy=0;" edge="1" parent="hDrwgJlJYcbWvLC_Cz83-1" source="hDrwgJlJYcbWvLC_Cz83-18" target="gZkioX_1BZv-o3ycCj8h-5">
          <mxGeometry relative="1" as="geometry">
            <mxPoint x="-25" y="1040" as="sourcePoint" />
            <mxPoint x="-25" y="880" as="targetPoint" />
          </mxGeometry>
        </mxCell>
        <mxCell id="gZkioX_1BZv-o3ycCj8h-5" value="avg_i = totalHours_i / 4" style="rounded=0;whiteSpace=wrap;html=1;" vertex="1" parent="hDrwgJlJYcbWvLC_Cz83-1">
          <mxGeometry x="-100" y="960" width="150" height="40" as="geometry" />
        </mxCell>
        <mxCell id="gZkioX_1BZv-o3ycCj8h-9" value="" style="edgeStyle=orthogonalEdgeStyle;rounded=0;orthogonalLoop=1;jettySize=auto;html=1;exitX=0.5;exitY=0;exitDx=0;exitDy=0;entryX=0.5;entryY=1;entryDx=0;entryDy=0;" edge="1" parent="hDrwgJlJYcbWvLC_Cz83-1" source="gZkioX_1BZv-o3ycCj8h-5" target="gZkioX_1BZv-o3ycCj8h-10">
          <mxGeometry relative="1" as="geometry">
            <mxPoint x="-25" y="960" as="sourcePoint" />
            <mxPoint x="-25" y="770" as="targetPoint" />
          </mxGeometry>
        </mxCell>
        <mxCell id="gZkioX_1BZv-o3ycCj8h-13" style="edgeStyle=orthogonalEdgeStyle;rounded=0;orthogonalLoop=1;jettySize=auto;html=1;exitX=0.5;exitY=0;exitDx=0;exitDy=0;entryX=0.5;entryY=1;entryDx=0;entryDy=0;" edge="1" parent="hDrwgJlJYcbWvLC_Cz83-1" source="gZkioX_1BZv-o3ycCj8h-10" target="gZkioX_1BZv-o3ycCj8h-11">
          <mxGeometry relative="1" as="geometry" />
        </mxCell>
        <mxCell id="gZkioX_1BZv-o3ycCj8h-21" style="edgeStyle=orthogonalEdgeStyle;rounded=0;orthogonalLoop=1;jettySize=auto;html=1;exitX=0;exitY=0.5;exitDx=0;exitDy=0;entryX=1;entryY=0.5;entryDx=0;entryDy=0;" edge="1" parent="hDrwgJlJYcbWvLC_Cz83-1" source="gZkioX_1BZv-o3ycCj8h-10" target="gZkioX_1BZv-o3ycCj8h-20">
          <mxGeometry relative="1" as="geometry" />
        </mxCell>
        <mxCell id="gZkioX_1BZv-o3ycCj8h-10" value="IF avg_i &amp;gt; avgMax" style="rhombus;whiteSpace=wrap;html=1;" vertex="1" parent="hDrwgJlJYcbWvLC_Cz83-1">
          <mxGeometry x="-65" y="850" width="80" height="80" as="geometry" />
        </mxCell>
        <mxCell id="gZkioX_1BZv-o3ycCj8h-14" style="edgeStyle=orthogonalEdgeStyle;rounded=0;orthogonalLoop=1;jettySize=auto;html=1;exitX=0.5;exitY=0;exitDx=0;exitDy=0;entryX=0.5;entryY=1;entryDx=0;entryDy=0;" edge="1" parent="hDrwgJlJYcbWvLC_Cz83-1" source="gZkioX_1BZv-o3ycCj8h-11" target="hDrwgJlJYcbWvLC_Cz83-29">
          <mxGeometry relative="1" as="geometry" />
        </mxCell>
        <mxCell id="gZkioX_1BZv-o3ycCj8h-16" style="edgeStyle=orthogonalEdgeStyle;rounded=0;orthogonalLoop=1;jettySize=auto;html=1;exitX=0;exitY=0.5;exitDx=0;exitDy=0;entryX=1;entryY=0.5;entryDx=0;entryDy=0;" edge="1" parent="hDrwgJlJYcbWvLC_Cz83-1" source="gZkioX_1BZv-o3ycCj8h-11" target="gZkioX_1BZv-o3ycCj8h-15">
          <mxGeometry relative="1" as="geometry" />
        </mxCell>
        <mxCell id="gZkioX_1BZv-o3ycCj8h-11" value="IF avg_i &amp;lt; avgMin" style="rhombus;whiteSpace=wrap;html=1;" vertex="1" parent="hDrwgJlJYcbWvLC_Cz83-1">
          <mxGeometry x="-65" y="690" width="80" height="80" as="geometry" />
        </mxCell>
        <mxCell id="gZkioX_1BZv-o3ycCj8h-15" value="avgMin = avg_i&lt;br&gt;minMonth = monthNum" style="rounded=0;whiteSpace=wrap;html=1;" vertex="1" parent="hDrwgJlJYcbWvLC_Cz83-1">
          <mxGeometry x="-260" y="710" width="150" height="40" as="geometry" />
        </mxCell>
        <mxCell id="gZkioX_1BZv-o3ycCj8h-20" value="avgMax = avg_i&lt;br&gt;maxMonth = monthNum" style="rounded=0;whiteSpace=wrap;html=1;" vertex="1" parent="hDrwgJlJYcbWvLC_Cz83-1">
          <mxGeometry x="-260" y="870" width="150" height="40" as="geometry" />
        </mxCell>
        <mxCell id="gZkioX_1BZv-o3ycCj8h-23" style="edgeStyle=orthogonalEdgeStyle;rounded=0;orthogonalLoop=1;jettySize=auto;html=1;exitX=0.5;exitY=0;exitDx=0;exitDy=0;entryX=0.5;entryY=1;entryDx=0;entryDy=0;" edge="1" parent="hDrwgJlJYcbWvLC_Cz83-1" source="gZkioX_1BZv-o3ycCj8h-22" target="hDrwgJlJYcbWvLC_Cz83-20">
          <mxGeometry relative="1" as="geometry" />
        </mxCell>
        <mxCell id="gZkioX_1BZv-o3ycCj8h-26" style="edgeStyle=orthogonalEdgeStyle;rounded=0;orthogonalLoop=1;jettySize=auto;html=1;exitX=0;exitY=0.5;exitDx=0;exitDy=0;entryX=0;entryY=0.5;entryDx=0;entryDy=0;" edge="1" parent="hDrwgJlJYcbWvLC_Cz83-1" source="gZkioX_1BZv-o3ycCj8h-31" target="hDrwgJlJYcbWvLC_Cz83-11">
          <mxGeometry relative="1" as="geometry">
            <mxPoint x="-260" y="1950" as="targetPoint" />
            <Array as="points">
              <mxPoint x="-280" y="2000" />
            </Array>
          </mxGeometry>
        </mxCell>
        <mxCell id="gZkioX_1BZv-o3ycCj8h-22" value="IF 0 &amp;lt;= hours_i &amp;lt;= 168" style="rhombus;whiteSpace=wrap;html=1;" vertex="1" parent="hDrwgJlJYcbWvLC_Cz83-1">
          <mxGeometry x="-100" y="1850" width="150" height="80" as="geometry" />
        </mxCell>
        <mxCell id="gZkioX_1BZv-o3ycCj8h-24" value="True" style="text;html=1;align=center;verticalAlign=middle;resizable=0;points=[];autosize=1;strokeColor=none;fillColor=none;" vertex="1" parent="hDrwgJlJYcbWvLC_Cz83-1">
          <mxGeometry x="-25" y="1830" width="50" height="30" as="geometry" />
        </mxCell>
        <mxCell id="gZkioX_1BZv-o3ycCj8h-28" value="False" style="text;html=1;align=center;verticalAlign=middle;resizable=0;points=[];autosize=1;strokeColor=none;fillColor=none;" vertex="1" parent="hDrwgJlJYcbWvLC_Cz83-1">
          <mxGeometry x="-150" y="1860" width="50" height="30" as="geometry" />
        </mxCell>
        <mxCell id="gZkioX_1BZv-o3ycCj8h-30" value="" style="edgeStyle=orthogonalEdgeStyle;rounded=0;orthogonalLoop=1;jettySize=auto;html=1;exitX=0;exitY=0.5;exitDx=0;exitDy=0;entryX=0;entryY=0.5;entryDx=0;entryDy=0;" edge="1" parent="hDrwgJlJYcbWvLC_Cz83-1" source="gZkioX_1BZv-o3ycCj8h-22" target="gZkioX_1BZv-o3ycCj8h-31">
          <mxGeometry relative="1" as="geometry">
            <mxPoint x="-170" y="2000" as="targetPoint" />
            <mxPoint x="-100" y="1890" as="sourcePoint" />
            <Array as="points">
              <mxPoint x="-280" y="1890" />
            </Array>
          </mxGeometry>
        </mxCell>
        <mxCell id="gZkioX_1BZv-o3ycCj8h-31" value="PRINT &quot;Please enter hours between 0 and 168&quot;" style="rounded=0;whiteSpace=wrap;html=1;" vertex="1" parent="hDrwgJlJYcbWvLC_Cz83-1">
          <mxGeometry x="-410" y="1920" width="260" height="40" as="geometry" />
        </mxCell>
        <mxCell id="xmLXSN6rl-044xEv4b7r-0" value="" style="edgeStyle=orthogonalEdgeStyle;rounded=0;orthogonalLoop=1;jettySize=auto;html=1;exitX=0.5;exitY=1;exitDx=0;exitDy=0;entryX=0.5;entryY=0;entryDx=0;entryDy=0;" edge="1" parent="hDrwgJlJYcbWvLC_Cz83-1" source="hDrwgJlJYcbWvLC_Cz83-41" target="xmLXSN6rl-044xEv4b7r-1">
          <mxGeometry relative="1" as="geometry">
            <mxPoint x="425" y="2830" as="sourcePoint" />
            <mxPoint x="425" y="3150" as="targetPoint" />
          </mxGeometry>
        </mxCell>
        <mxCell id="xmLXSN6rl-044xEv4b7r-1" value="PRINT name &quot;, during these months, you studied the most in month &quot; maxMonth &quot;with an average of&quot; avgMax &quot;hours.&quot;" style="rounded=0;whiteSpace=wrap;html=1;" vertex="1" parent="hDrwgJlJYcbWvLC_Cz83-1">
          <mxGeometry x="230" y="2870" width="390" height="80" as="geometry" />
        </mxCell>
        <mxCell id="xmLXSN6rl-044xEv4b7r-3" value="" style="edgeStyle=orthogonalEdgeStyle;rounded=0;orthogonalLoop=1;jettySize=auto;html=1;exitX=0.5;exitY=1;exitDx=0;exitDy=0;entryX=0.5;entryY=0;entryDx=0;entryDy=0;" edge="1" parent="hDrwgJlJYcbWvLC_Cz83-1" source="hDrwgJlJYcbWvLC_Cz83-22" target="xmLXSN6rl-044xEv4b7r-2">
          <mxGeometry relative="1" as="geometry">
            <mxPoint x="426" y="340" as="sourcePoint" />
            <mxPoint x="426" y="1240" as="targetPoint" />
          </mxGeometry>
        </mxCell>
        <mxCell id="xmLXSN6rl-044xEv4b7r-2" value="minMonth = 1&lt;br&gt;maxMonth = 1" style="rounded=0;whiteSpace=wrap;html=1;" vertex="1" parent="hDrwgJlJYcbWvLC_Cz83-1">
          <mxGeometry x="323" y="380" width="205" height="60" as="geometry" />
        </mxCell>
        <mxCell id="xmLXSN6rl-044xEv4b7r-7" value="" style="edgeStyle=orthogonalEdgeStyle;rounded=0;orthogonalLoop=1;jettySize=auto;html=1;exitX=0.5;exitY=1;exitDx=0;exitDy=0;entryX=0.5;entryY=0;entryDx=0;entryDy=0;" edge="1" parent="hDrwgJlJYcbWvLC_Cz83-1" source="xmLXSN6rl-044xEv4b7r-1" target="xmLXSN6rl-044xEv4b7r-6">
          <mxGeometry relative="1" as="geometry">
            <mxPoint x="425" y="2950" as="sourcePoint" />
            <mxPoint x="425" y="3150" as="targetPoint" />
          </mxGeometry>
        </mxCell>
        <mxCell id="xmLXSN6rl-044xEv4b7r-6" value="PRINT &quot;Your lowest study hours were in Month &quot; minMonth &quot;with an average of &quot; avgMin &quot;hours.&quot;" style="rounded=0;whiteSpace=wrap;html=1;" vertex="1" parent="hDrwgJlJYcbWvLC_Cz83-1">
          <mxGeometry x="230" y="2990" width="390" height="80" as="geometry" />
        </mxCell>
      </root>
    </mxGraphModel>
  </diagram>
</mxfile>
